<?xml version="1.0" encoding="utf-8"?>
<!-- Generator: Adobe Illustrator 21.1.0, SVG Export Plug-In . SVG Version: 6.00 Build 0)  -->
<svg version="1.1" id="Слой_1" xmlns="http://www.w3.org/2000/svg" xmlns:xlink="http://www.w3.org/1999/xlink" x="0px" y="0px"
	 viewBox="0 0 879 272" style="enable-background:new 0 0 879 272;" xml:space="preserve">
<style type="text/css">
	.st0{fill:#FFFFFF;}
</style>
<title>barber</title>
<g>
	<path class="st0" d="M180.8,163l-0.3-0.3c-1.3,0.8-2.6,1.4-3.9,1.9c-1.3,0.4-2.7,0.8-4.1-0.1c0.7-0.1,1.3-0.2,2-0.2
		c1.1-0.1,2.2-0.4,3.2-0.9c5.5-2.9,5.7-6,4.7-11c-0.4-1.8-1.1-3.5-2.1-5.1c-1.9-3.4-3.6-7-5-10.7c-0.9-2.1-1.9-4.2-3-6.1
		c0,0.6,0,1.2,0.1,2.3c-1.6-2-2.5-3.8-2.5-5.8c0-1.2-0.4-1.7-1.4-1.8s-2.2-0.2-2.7,0.3c-1.3,1.1-2.5,0.8-4,0.6
		c3.3-1.1,6.2-3.1,8.4-5.8c0,0.2,0,0.4-0.1,0.6c-0.1,0.2-0.2,0.5-0.3,0.7c0.9,0.4,1.4-0.2,1.8-0.8c1.7-2.1,2.1-5,1.2-7.6
		c-0.6-2-1.3-4-1.9-6c-1.8-6.4-3.5-12.9-5.2-19.4c-1.5-5.4-3.9-10.4-8.1-14.3c-1.3-1-2.7-1.8-4.1-2.5l-0.6,1.1l-2.2-1.6
		c-1.5,1.5-2.3-0.4-3.4-0.8c-0.1-0.6-0.3-1.2-0.5-1.8c-2.5-5-4.3-10.4-5.3-16c-0.4-2.2-1.2-4.3-2.2-6.3c-3.7-7-8-13.6-12.9-19.8
		c-0.5-0.6-1-1.2-1.6-1.7l-0.4,0.3c0.4,0.6,0.9,1.3,1.3,2c3.2,5,6.7,9.9,9.5,15.1c2.2,4.2,4,8.6,5.2,13.2c0.7,2.9,1.6,5.8,2.6,8.7
		c0.6,1.5,1.3,3,2,4.4c0.5,0.9,1,1.9,2.2,2c0.2,1.1-0.3,1.6-1.3,1.1c-0.7-0.5-1.3-1.1-1.7-1.9c-0.8-1.7-1.5-3.5-2.3-5.3
		c-0.2-0.2-0.4-0.5-0.6-0.6c-0.1-2.7-1.3-5-2.2-7.4c0.7,2.5,0.5,5.2,2.3,7.4c-0.6,1-0.5,2.2,0.1,3.1c1,1.6,1.9,3.3,3,5
		c-1,0-2.2,0.1-3.3,0.2c-2,0.1-4,0-6,0.1c-1.2,0.1-2.7,0.9-3.7-0.5c-0.8,0.8-1.8,0-2.5,0.2c-1.4,0.4-2.3-0.5-3.3-1l-1.3,0.7
		c-0.7-2.3-2.3-3.9-3.8-5.5c0.8,2.1,2.1,4,3.9,5.4l1.9,0.9c0,0.2,0,0.4,0,0.5l-1.8,0.4c-1-1-2-1.9-2.9-2.8c-1.4-1.5-2.6-3.1-4-4.5
		c-0.7-0.6-1.4-1.3-2.2-1.8c-0.1,0.4-0.2,0.5-0.2,0.6c2.6,2.8,5.1,5.5,7.7,8.2c0.3,0.3,1,0.3,1.5,0.4c-0.1,1.6-0.6,1.9-1.8,1.2
		c-0.2-0.1-0.4-0.3-0.6-0.4c-2.8-2.4-5.5-4.8-8.3-7.2c-0.1-0.1-0.3-0.1-0.4-0.1c0.5,2,1.8,3.1,10.1,9.1c-0.4,1-0.7,2-1.1,3l1.8,1
		l-2.1,1.3l2.5,1.1c-0.6,0.9-1.8,1.4-2.8,1.1c-0.9-0.2-1.7-0.3-2.6-0.5l-8.2-4l-2.6-1.3l-2.4-1.6l-0.3,0.5c0.8,0.5,1.7,0.9,2.7,1
		c0.7,0.8,1.3,1.8,2.6,1.3c0,0.2-0.1,0.6,0,0.7c2.5,1.5,5,3.2,8.1,3.3c1.3,0.5,2.6,1,3.9,1.4c0.9,0.2,1.8,0.3,2.7,0.4
		c-0.2,1.2-0.4,2.2-0.6,3.3c-1,0.4-2.2,0.4-3.2-0.1c-4-1.4-8.1-2.8-12.1-4.2c-0.7-0.3-1.5-0.5-2.3-0.7c-0.3,0-0.7,0.3-1.4,0.6
		c1.4,1,3.1,1.4,3.3,3.1v-0.1c-0.7,1.3-1.8-0.2-2.7,0.4c0.3,1.1,1.2,1.3,2.1,1.6c4.8,1.4,9.7,2.9,14.6,4.2c1.5,0.3,3.1,0.5,4.7,0.5
		c1.1,1.6,1.1,1.6-0.1,2.9l1.6,1c0,0,0,0.1,0.1,0.3c-0.2,0.8-0.8,0.8-1.5,0.6c-0.9-0.3-1.8-0.5-2.8-0.7c-3.4-1.3-6.9-2.7-10.3-4
		c-2.6-1-5.5-1.5-8.3-1.4c4.5,1.4,9,2.7,13.5,4c1.7,0.5,3.4,0.9,5.1,1.3c0.6,0.5,1.2,1,1.9,1.6c-1.5,0.9-2.6,0-3.7-0.5
		c-1.2-0.6-2.4-1-3.7-1.2l3.9,3l-0.3,0.5c-0.7-0.2-1.4-0.4-2.1-0.6c-3.5-1.4-6.9-3-10.5-4.4c-2.5-1-5.1-2-8.2-1.7
		c2.6,0.8,4.9,1.6,7.2,2.4c3.2,1.2,6.5,2.4,9.7,3.6c1,0.4,1.2,1,0.4,2l-2.4-0.9c-0.7-0.6-1.3-1.5-2.5-0.9c-1.6-1.6-2.6-1.9-5.2-1.1
		c1.6,0.5,3,1.1,4.5,1.5c0.2,0,0.4-0.3,0.7-0.4l2.4,1.2c0,1.5-1,1.4-1.9,1.1s-2.2-0.8-3.3-1.2l-2.6-0.9c-0.5-0.4-1.1-0.7-1.8-1
		c-2.9-0.8-5.8-1.5-8.6-2.3c-0.7-0.2-1.6,0.1-2.1-0.9c-0.1-0.2-0.9-0.1-1.3-0.1s-1.2,0.3-1.7,0.4c-0.1-0.3-0.2-0.4-0.1-0.4
		s0.1-0.1,0.2-0.2l0.2-0.3c-5.9-1.5-12-2.2-18.1-2.3c0.6,0.2,1.1,0.3,1.7,0.4c3.5,0.4,7,0.8,10.5,1.2c0.5,0,1.2,0.2,1.3,0.4
		c0.4,1.7,1.7,1.4,2.9,1.6c2.9,0.3,5.8,0.9,8.7,1.5c1.3,0.4,2.6,0.6,3.9,0.9c1.5,0.3,3,0.7,4.4,1l2.5,0.9c-0.5,1.4,1.3,1.1,1.7,2.4
		c-0.6,0.1-1.2,0.1-1.8,0c-2.7-0.8-5.5-1.5-8.1-2.5c-4.2-1.7-8.7-2.3-13.1-3.1c-1.6-0.1-3.3-0.1-4.9,0.1c0,0.2,0,0.4,0,0.6
		c2.5,0.3,5,0.5,7.5,0.9c0.5,0.1,1.7-0.5,1.6,0.8c0,0.1,0.3,0.2,0.3,0.2c1.3-1.7,2.6,0.1,3.9,0c1.4,0,2.7,0.3,4,0.8
		c2.7,1,5.3,2.1,7.9,3.2c0,1.3-0.5,1.5-1.4,1.1s-1.4-1.2-2.4-0.5c-0.5-1.4-1.9-1-2.9-1.3c-4.7-1.7-9.7-2.3-14.5-3
		c-0.3,0-0.6,0.1-0.9,0.2c0.4,0.2,0.9,0.4,1.3,0.5c5.3,0.8,10.6,2,15.7,3.5c0.5,0.1,1,0.1,1.4,0l2.2,1.3l-2,1.7
		c0.3,1.8,0.2,1.9-1.7,1.5c-0.3,0-0.6-0.1-1-0.1l-1.7-1c-0.1,0.2-0.1,0.3-0.2,0.5l1.9,0.4l2,2.4l-0.4,0.5l-7.6-3.8l-0.2,0.4
		c1.5,0.9,3,1.7,4.5,2.6c0.7,0.4,1.3,0.9,1.9,1.4c0.3,0.3,0.2,0.9,0.2,1.4l-0.5,0.3c-0.5-0.4-1-0.9-1.6-1.2c-1-0.7-1.7-2-3.2-1.9
		l-1.8-1.6l-0.4,0.5l2.2,1l3.8,3.7c-0.5,0.8-1,0.7-1.6,0.3l-1.8-1.1c-1.5-2.5-3.9-3.7-6.3-4.8l-0.3,0.4l6.7,4.4l2.2,2.9
		c-0.7,0.9-1.2,0.7-1.9,0c-2.3-2.1-4.5-4.3-7-6.2c-3.4-2.6-7.1-4.6-11-6.1c0.2,0.6,0.3,0.9,0.4,1.1l-1,0.5c-2.4-0.4-4.5-1.6-6.1-3.5
		l4,0.5c-1.1-1-2.7-1.2-4-0.4c-2.5-0.8-4.8,0.2-7.2,0.8v0.5c0.9,0.1,1.9,0.5,2.7,0.2c1.8-0.7,3.2,0.1,4.7,0.8s2.6,1.5,3.9,2.2
		l-1,0.3c7.8,5.5,15.3,11.2,19.5,19.9c0.2,0.6,0.4,1.3,0.5,1.9l-1.8,0.2c-0.2-1-0.5-2-0.8-3c-1.7-3.6-4.1-6.9-7.1-9.6
		c-0.3-0.2-0.5-0.3-0.8-0.4c0.1,0.5,0,0.8,0.2,1c2.9,4,5.8,7.9,8.7,11.8c0.6,1.6,1.1,3.1,1.9,5.3c-0.9-0.4-1.5-0.5-1.7-0.8
		c-0.6-1-1-2-1.5-3c-0.2-0.5-0.6-0.9-0.9-1.4l-0.4,0.3c0.1,0.3,0.2,0.7,0.3,1c1,2,2,4,2.8,6.1c0.3,0.9,0.4,1.8,0.5,2.7
		c0.1,0.6,0.2,1.3,0.5,1.9c1,2.1,2.2,4.1,3.2,6.2c0.2,0.5,0.3,1.1,0.3,1.6c0,0.9,0,1.8,0,2.8l1.8,0.9c0.2,1.2,0,2.5,1.4,3.3
		c0.7,0.4,0.7,2,1.3,2.7c0.9,1.1,1,2.8,2.6,3.2c0.1,0,0.2,0.1,0.2,0.2c0.3,3.3,3.1,4.8,5,6.9c1.9,2.1,3.3,4.5,4.3,7.1
		c0.6,1.7,1.4,3.3,2.4,4.7l-0.7-3.7c2,1.3,2.4,3.3,3.4,4.7s1.6,3.1,2.7,4.5c-0.7-1.8-1.3-3.8-1.8-5.7c-0.5-2-0.3-4.1,0.5-6
		c1,0.1,1.8,1,1.8,2c0.2,2.5,1.5,4.4,3.2,6.1c3.2,3.2,8.4,3.3,11.7,0.1c1.5-1.5,2.7-3.4,3.6-5.4c1.1-2.8,2.8-5.3,5-7.3
		c4-3.8,9.5-5.4,15-4.5c2.3,0.4,4.6,1.1,7,1.6c0.6,0.1,1.1,0.1,1.7,0c0.7,1,1.3,2,2,2.9c1.1,1.3,1.6,3,1.4,4.7
		c-0.1,1.4,0.1,3-1.8,3.5c-0.2,0-0.2,0.4-0.3,0.6c-1.5,3.7-3.8,6.9-6.8,9.4c0.9,1.2,0.6,2.4,0.3,3.6c-0.3,1.5-1.3,2.3-2.3,3.3
		s-2.3,2.2-2.4,3.5c-0.2,2.2,0.3,4.4,1.4,6.3c3.3,5.2,6,10.6,8.2,16.4c1.6,4.5,3.3,8.8,2.8,13.7c-0.2,1.6,0.1,3.2,0,4.8
		c-0.1,4.8-1.7,9.3-3,13.9c-0.3,1.3-0.4,2.7-0.3,4c0.2,0.7,0.5,1.4,0.9,2c-1.1,0.8-2.5,0.8-3.6,0.1c-2.5-1.3-5.1-1.9-7.8-0.9
		c-1.1,0.5-2.5,0.3-3.4-0.4c-0.5-0.4-1.1-0.6-1.8-0.5c-4.7,1.1-9-0.9-13.5-1.6c-1.5-0.2-3-0.6-4.5-0.9c-1.7-0.3-3.3-0.7-5-1
		c-2-0.5-3.7-2.4-6-1.5c-0.2,0.1-0.4-0.2-0.7-0.2l-2.3-0.8c-0.6-1.2-1-2.6-1.2-3.9c-0.1-3.2-1.6-5.9-3-8.6c1.2,4,2.9,7.8,2,12.5
		c-1.9-1.8-0.6-4.4-2.2-6c0.1,1.6,0.2,3.2,0.3,4.7h-4.2l-1.9-3.6c-1,1.5-2.1-0.2-3,0l-2.5-4.8c0-0.4-0.1-0.8-0.2-1.2
		c-2.1-4.3-4.3-8.6-6.7-12.8c1.5,5,4.2,9.5,6.9,13.9c0.1,1.1,0.2,2.1,0.3,3.3c-1.8-0.3-1-2.1-2.2-2.7l-1.4,1.5
		c-0.5-0.4-1-0.8-1.5-1.1c-2.7-1.9-5.4-3.7-8.1-5.5c-1.8-1.2-3.5-2.5-5.3-3.7c-3.4-2.3-6.9-4.4-10.2-6.7c-1.4-1-2.6-2.2-3.6-3.5
		c-1.4-1.9-2.7-3.9-4.3-5.7c-0.8-1.1-1.5-2.3-2-3.5c-0.4-0.7-0.7-1.4-1.1-2.1c-0.3-2.5-0.8-5.1-1-7.6c-0.2-2.4,0-4.8-0.2-7.2
		c-0.7,2.1-1,4.4-0.7,6.6c0.1,2.8,0.7,5.6,1.9,8.1c0,0.3,0,0.6-0.1,1.3c-0.4-0.5-0.7-1-1-1.5c-1.5-5-2.7-10-1.2-15.2
		c0.5-1.9,0.2-4.5,2.9-5.4c0.2-0.1,0.3-0.7,0.5-1.1c0.3-1,0.5-2,0.9-3c1.6-4.5,3.2-8.9,4.8-13.4c1.1-3.3,2.2-6.6,3.1-9.9
		c1.4-5.2,2.2-10.6,2.3-16c0.1-2,0.2-4.1,0.3-6.1c0.5,0.3,0.8,0.8,0.9,1.3c0.2,1.4,0.2,2.9,0.1,4.3c-0.1,0.7,0.3,1.4,0.9,1.8
		c0-0.8,0-1.7-0.1-2.5c-0.5-8.7-3.1-17.2-7.6-24.7c-0.7-1.1-1.2-2.4-0.5-3.7c-5.1-3-11.5-2.7-14.5-0.4c4.5,3.2,9.8,5.3,12.6,10.5
		c-1.4-0.2-1.4-0.2-2.2-1.2c-4.3-4.9-9.9-7.7-15.7-10.1c-4.1-1.6-8.6,0.5-10.6,4.4c-1.3,2.4-2,5.1-2.1,7.9c-0.2,4.2,0.3,8.3,2.8,12
		c2.5,3.6,5.5,7,8.9,9.9c3.4,2.8,6,6.4,7.7,10.4c1.8,4.6,6.1,6,10,5.4c0.4-0.1,0.8-0.1,1.3-0.1c-0.2,1.2-1,1.2-1.7,1.3
		c-5.2,0.6-9.5-1.9-11.3-6.7c-0.9-2.5-2.4-4.8-4.3-6.6c-3.1-3.1-6.2-6.3-9.3-9.5c-0.7-0.7-1.3-1.4-1.9-2.1c-0.1,1.7,0.1,3.4,0.7,5
		c1.2,3.4,2.5,6.8,3.9,10.1c0.5,0.9,1.1,1.7,1.8,2.5c0.6,0.8,1.2,1.6,1.8,2.5c0.6,1.1,0.9,2.2,1.4,3.3c1.8,4.4,3.7,8.8,4.3,13.7
		c0.2,1.8,0.3,3.7,0.6,5.5c0.9,5.4-0.8,10.2-3.9,14.5c-0.2,0.2-0.5,0.4-0.7,0.6c-0.7-1.3-1.4-1.5-2.2-0.7c-0.3,0.3-0.6,0.8-0.9,1.1
		c-0.2,0.1-0.4,0.2-0.6,0.3c-0.2-0.5-0.4-0.8-0.7-1.4l-1.7,1.3l-0.5-0.1c1-1.4,0.8-2.8,0-4.3l-1.4,3.1c-1-0.2-1-0.8-0.8-1.5
		c0.3-1.3,0.7-2.6,1-4c0.1-0.7,0.2-1.4,0.3-2.1h-0.3v2.1c-0.2,0.4-0.4,0.7-0.5,1c-0.9,2.2-1.9,3.5-3.4,4c0.1-0.9,0.3-1.7,0.4-2.6
		l-0.4-0.1l-1,1.3l-1-0.8c0.6-1.8,1.1-3.7,1.5-5.5c0.6-3.5,0.8-7,0.5-10.6c-0.7-4.7-1.8-9.3-3.5-13.8c-1.6-4.4-4-8.4-5-13
		c-0.1-0.3-0.3-0.5-0.7-1c-0.1,0.6-0.1,1.3,0,1.9c1.7,5,3,10.1,5.1,15c2.4,5.5,2.9,11.4,3,17.2c0,3,0.2,6-0.9,8.8
		c-0.1,0.3-0.1,0.7,0,1l-1.3,0.3c0.1-1,0.1-1.8,0.2-2.8l-1.3,0.3c-0.4-0.7-0.8-1.4-1.1-2l-1.8,0.2c-0.1-1.1-0.3-2.2-0.6-3.3
		c-0.9-2.6-2.2-5-2.7-7.6c-0.6-3.2-2.3-5.8-3.5-8.7c-1.5-3.7-3.3-7.4-4.9-11c-1.9-4.8-4.6-9.2-7.8-13.2c-0.5-0.5-0.9-1.1-1.1-1.8
		c-0.2-1.8-1.2-3.1-2-4.6c-0.9-1.5-1.7-3.1-2.3-4.8c-1.7-5.1-3.1-10.3-4.1-15.6c-0.6-3-1-6-1.1-9.1c-0.2-2.9-2-5.5-1.9-8.5
		C6,106.3,6,106,5.8,105.7c-0.7-2.7-1.5-5.4-2-8.2c-0.6-3.1-1.1-6.2-1.5-9.3c-0.1-1.1-0.2-2.2-0.1-3.4c0.1-1.4,0.3-2.9,0.5-4.3
		c0.2-2-0.6-4.1,0.3-6.1c0.1-0.3-0.4-0.8-0.5-1.1c0.5-0.7,1-1.2,1.3-1.8c0.7-1-0.6-1.1-0.9-1.8l2.2-4.2l-1-0.9
		c1-0.8,2.2-1.3,2.7-2.2c0.5-1.2,1.4-2.1,2-3.1c2-4.2,5.5-7.3,8-11.1c0.1-0.2,0.4-0.5,0.5-0.5c1.2,0.5,1-0.7,1.4-1.1s0.8-1,1.2-1.5
		l3-3.8c1.2-1.4,2.4-2.8,3.4-4.4c0.9-1.6,2.5-2.2,3.5-3.5c1.3-1.6,3.1-2.8,5.1-3.3c1-0.2,1.9-0.8,2.5-1.6c0.9-1.2,2.1-2.2,3.4-3
		c2.5-1.6,5.2-2.9,7.8-4.4c2.3-1.3,4.7-2.4,7.2-3.2c2.7-0.9,5.5-1.8,8.3-2.5c2.5-0.7,5-1.2,7.5-1.7c4.4-0.8,8.7-1.6,13.1-2.1
		c4.2-0.5,8.5-0.7,12.7-1c0.6-0.1,1.1,0,1.7,0.1c3.1,0.7,6.4,0.9,9.6,0.7c2.7-0.1,5.5-0.4,8.1,1c0.3,0.1,0.6,0.2,0.9,0.1
		c2-0.5,3.9,0,5.9,0.3c2.7,0.5,5.4,1,8,1.6c4,0.9,7.9,2,11.4,4.3c3.8,2.5,7.3,5.4,11.2,7.7c3.8,2.4,7.2,5.4,10,8.9
		c1.5,1.8,3,3.8,4.3,5.8c2.1,3.3,4.6,6.4,6,10c2.5,6.6,2.3,13.2-1.4,19.5c-2,3.5-4.2,6.9-7.9,9c-0.3,0.1-0.4,0.5-0.6,0.8
		c0.7,2.2,1.5,4.3,2.1,6.4c2.4,8.8,4.4,17.7,7.6,26.2c0.2,0.5,0.3,1.1,0.3,1.6c0.3,2.2-0.3,4.4-1.5,6.2c-1.1,1.6-1.3,3.7-0.5,5.5
		c1.2,3,2.3,6,3.5,8.9c2.3,5.7,5.6,11,7.4,17c0.4,1.5,0.6,3.1,0.6,4.7c0,1.9-1.3,3.6-1,5.5c0,0.4-0.5,1-1,1.3
		c-0.8,0.5-1.7,0.9-2.5,1.4C179.8,164.6,180.3,163.8,180.8,163z M67.6,47.6c-0.6-0.5-1.1-1.2-1.8-1.5c-4.6-1.9-9.4-3.5-14.2-4.9
		c-5.1-1.4-10.4-1.6-15.5-0.8c-0.7,0-1.5,0.3-2.1,0.6c2,0,4,0.2,6,0.1c4.7,0,9.3,0.6,13.8,1.9C58.5,44.5,63,46.1,67.6,47.6l2.7,0.7
		c0.7,0.6,1.3,1.3,2.4,1l1.4,1.1l0.2-0.5l-1.7-0.6l-2.4-1C69.6,47.6,68.5,47.3,67.6,47.6z M70,59l-0.3,0.5l1.9,0.5l1.5,1l0.2-0.6
		l-1.8-0.3L70,59z M72.2,61.9l2,1.2l0.2-0.5L72.2,61.9l-2.6-0.8L67.9,60c-0.1,0.1-0.1,0.3-0.2,0.5l1.9,0.6
		C70.2,61.8,71.3,62.2,72.2,61.9L72.2,61.9z M120.2,77.6c-0.7-1.2-1.4-1.2-2.2-0.8c-0.2-1.2-1.2-1.1-1.8-1.7l-0.3,0.4l2.1,1.2
		L120.2,77.6z M124.1,231l-0.5,0.4l1.4,1.2c0.5,0.7,0.9,1.3,1.4,2l3.4,6.2c0.5-2.1-1-4.6-3.5-6.2c0.1-1.1-0.5-1.6-1.4-2L124.1,231z
		 M86.8,164.4l-0.4-0.1c-0.1,0.8-0.2,1.5-0.3,2.3l-0.3,2.2h0.4l-0.1-2.2C86.2,165.8,86.5,165.1,86.8,164.4L86.8,164.4z M87.8,48
		l-0.3,0.6l1.5,0.3l1.7,1.3l0.3-0.5l-2-0.8L87.8,48z M147.4,241.1l-0.4,0.1c0.2,0.6,0.4,1.2,0.6,1.8c0.3,0.8,0.7,1.6,1,2.4
		c0.1-1,0-2-1.1-2.3L147.4,241.1z M92.6,49.2c0.6-1.8-0.6-1.4-1.1-1.7l-1.5-1c-0.5,0.9-0.5,1.4,0.4,1.4c0.4-0.1,0.8-0.2,1.1-0.4
		C91.8,47.9,92.1,48.4,92.6,49.2z M53,164.8c-0.5,0.4-0.5,1.2-0.1,1.7c0.1,0.1,0.2,0.2,0.3,0.2c0.3,1.1,0.6,2.3,1,3.4l0.6,3.2
		c0.4-1.1,0.1-2.3-0.7-3.2c0.2-1.2-0.2-2.5-1-3.4L53,164.8z M28.6,122.2c-0.9,0.6-1.7,1.4-2.3,2.2c-2.1,3.1-4,6.2-5.9,9.4
		c-0.8,1.5-1.4,3-2,4.5l0.5,0.2c0.4-1,0.9-2,1.4-2.9c2.5-3.9,5-7.7,7.4-11.5C27.9,123.5,28.2,122.8,28.6,122.2c0.6-1,1.2-2,1.8-3
		l1.3-1.1l-0.4-0.4c-0.3,0.5-0.6,1-0.8,1.5C29.3,119.8,28.6,120.9,28.6,122.2L28.6,122.2z M124.4,209.4c0.6-1,0-1.5-0.5-2
		c-0.3-1-0.6-1.9-0.9-2.9c0,1.1-0.4,2.3,0.9,2.8C124.1,208.1,124.3,208.7,124.4,209.4L124.4,209.4z M124.8,207.4l0.7-0.2l-1.5-2.8
		l-1-2.7l-0.5,0.2c0.5,0.8,1,1.6,1.6,2.4C124.3,205.4,124.6,206.4,124.8,207.4L124.8,207.4z M84.1,17.9L84,18.4l2.8,0.4l2.8,1.4
		c-0.6-1.2-1.7-1.2-2.8-1.3L84.1,17.9z M83,100.8c0-0.1,0-0.2,0-0.4h-5.4c0.9,1,1.7,0.5,2.4,0L83,100.8z M113,179.2
		c-0.5-2.8-1-5.6-1.5-8.4l-0.5,0.1C111.1,173.8,111,176.7,113,179.2c-0.2,1,0.1,2.2,0.9,3l0.9,3l0.6-0.2l-1.6-2.7L113,179.2z
		 M112.1,37.3l1,0.5c0-1.9-1.3-2.7-2.4-3.5l-1.2-0.9l-5.5-5.4c-0.1-0.2-0.3-0.4-0.5-0.5c-2.1-1.7-4.2-3.4-6.3-5
		c-0.5-0.3-1-0.5-1.5-0.4l13.9,12.5l0.9,0.8L112.1,37.3z M150.1,59.9l-0.5,0.1c0.3,0.8,0.6,1.7,1,2.5c0.3,1.1,0.6,2.3,0.9,3.4
		c0.2-1.2-0.1-2.5-1-3.4C150.4,61.7,150.3,60.8,150.1,59.9L150.1,59.9z M139.1,199.6c-0.8,0.8,0,1.1,0.3,1.6
		c0.4,0.9,0.8,1.9,1.2,2.8c0-1.1-0.1-2.2-1.3-2.7L139.1,199.6z M86.7,41.1l-0.3,0.5c0.5,0.7,1.4,1.1,2.2,1.1c0.7,1,1.7,1.7,2.9,1.9
		c-1-1.2-1.8-1.8-3-1.9L86.7,41.1z M81.5,60.1l-0.2,0.5l2,0.4l3.1,2l0.3-0.5c-1.1-0.5-2.1-1.4-3.4-1.5L81.5,60.1z M101.6,68.7
		l-0.2,0.5c1,0.8,1.9,1.8,3.4,1.4c-0.2,1.5,1.1,1.7,2.2,2.6c-0.5-1.5-1.6-1.8-2.3-2.6L101.6,68.7z M45.1,34.7c-1.4-0.1-3-1-4.2,0.4
		l-2.8-0.3v0.5l2.7-0.3L45.1,34.7z M105.4,22.4c-0.3-0.9-0.8-1.7-1.3-2.4c-0.9-0.5-1.9-0.8-2.9-0.8L105.4,22.4l2.2,1.2
		c0.3,1.2,1.3,1.6,2.4,1.9c-0.1,0.7,0.3,1.4,1,1.5c0.1,0,0.3,0,0.4,0c0.2,0.6,0.6,1.1,0.9,1.7c1.8,2.1,3.7,4.2,5.6,6.3
		c0.1,0.1,0.3,0,0.8,0.1c-0.4-0.8-0.9-1.5-1.5-2.3c-1.4-1.7-2.8-3.3-4.3-4.9c-0.5-0.3-1-0.6-1.6-0.8c0-1-0.1-1.9-1.4-2.1
		c-0.5-1.6-0.7-1.6-2.4-1.4C107.3,22.8,106.4,22.2,105.4,22.4L105.4,22.4z M45.8,65.9v0.5c2-0.3,4,0.5,5.9-0.5H54c0-0.1,0-0.3,0-0.4
		l-2.3,0.4L45.8,65.9z M96.9,139.7c-0.5,0.8-0.4,1.8,0.4,2.4c0.3,1.7,0.6,3.4,1,5.6c0.4-1.9,0-3.9-1.1-5.6L96.9,139.7z M10.8,109.1
		c0.9-0.8,1.9-1.5,1.3-2.9c0.9-0.3,1.4-1.1,1.4-2c1.6-0.9,2-2.7,2.6-4.2c-1,1.4-2.6,2.3-2.6,4.3l-1.4,2
		C10.8,106.7,10.7,107.9,10.8,109.1L10.8,109.1z M136.8,199.4c0,1.4,0.6,2.8,1.7,3.8c0.8,1.6,1.5,3.2,2.3,4.8
		c0.2,0.3,0.4,0.6,0.7,0.9c0.2,0.9,0.3,1.8,0.5,2.6l0.6-0.2l-1.1-2.4c-0.6-1.6-1.1-3.1-1.8-4.7c-0.2-0.4-0.8-0.6-1.3-1
		C138.2,201.6,138.2,201.6,136.8,199.4L136.8,199.4z M51,176l-0.6,0.1c0.3,1.1,0.6,2.2,0.9,3.3c0.3,2,0.5,4,0.8,6.1
		c0.1-2.1,0.4-4.2-0.8-6C51.1,178.3,51,177.2,51,176L51,176z M158.5,169.7c1.7-0.2,2.8-1.4,4.1-2.2c1.2,0.3,2.4,1,3.6-0.4l-3.5,0.5
		C159.9,167.7,159.9,167.8,158.5,169.7z M94.8,72.8l-0.1,0.4l1.7,0.3c1.1,0.5,2.2,1.1,3.4,1.5c1,0.4,2,0.6,2.9,1
		c0.2,0.4,0.2,1.1,0.5,1.3c2.4,1.1,4.8,2.1,7.3,2.9c-2.6-1.4-4.7-3.8-7.8-4.1c-0.5-0.4-1-0.7-1.5-1c-1.6-0.5-3.2-1-4.8-1.5
		L94.8,72.8z M50.5,62.5c-0.5-1.2-1.3-1.1-2.2-0.9c-1.3-0.7-2.5-1.6-4-0.4c1.3,1,2.7,0.4,4,0.3L50.5,62.5z M39,69.8
		c2.2,0,4.3-0.4,6.4-1.1c1.6,0.1,3.2-0.4,4.5-1.3c-1.3,0.2-2.6,0.3-3.9,0.5c-0.2,0-0.4,0.5-0.6,0.9C43.3,68.6,41.1,69,39,69.8
		L39,69.8z M22,91.1c-1.5,0.2-1.8,1.5-2.5,2.4l-1.8,1.8c-2.1,1.4-3.3,3.4-4.3,6.2l4-4.5v0c0.4,0,0.8,0.1,1-0.1
		c1.3-1.2,2.5-2.4,3.7-3.6c0,0-0.2-0.4-0.4-0.6l0,0L22,91.1z M54,52.2c-1-1-2.4-1.5-3.8-1.2c-0.2-0.2-0.3-0.7-0.5-0.7
		c-1.7-0.5-3.3-0.9-5.1-1.1c1.7,1.1,3.7,1.3,5.6,1.8L54,52.2z M29.3,143.7c0.9-2.2,1.7-4.4,2.4-6.7c-1,1-2.4,4.5-2.8,6.9
		c-0.3,0.9-0.6,1.7-0.9,2.6c1.1-0.6,0.9-1.6,0.9-2.6C29,143.8,29.3,143.8,29.3,143.7z M135.1,227.4c-0.2-0.8-0.4-1.5-0.8-2.2
		c-0.3,1,0,2,0.8,2.6c-0.1,2.7,1.3,4.8,2.7,6.9c-0.6-2.4-1.5-4.7-2.8-6.9C135.1,227.7,135.2,227.5,135.1,227.4z M141.4,224.8
		c-0.7-3.8-1.4-7.6-2.1-11.5c0-0.2-0.3-0.3-0.5-0.5c0.1-3-1-5.6-2.2-8.3c0.5,2.8,0.8,5.7,2.2,8.2c0.5,3.3,1.1,6.6,1.7,9.8
		C140.8,223.4,141.1,224.1,141.4,224.8c-0.3,1.2,0,2.6,0.9,3.5c-0.4,2.6,1.2,4.6,2.3,6.8c-0.4-2.4-1.2-4.7-2.3-6.8
		C142.1,227.1,141.8,226,141.4,224.8L141.4,224.8z M30.8,54.7c-2.2,0-4.3,0-6.5,0c-1.2,0-1.3,1.1-1.9,1.6l-2.8-0.3v0.5l2.8-0.2
		C25,54.6,28,55.5,30.8,54.7z M51,81.9c-2.2,0.7-4.3,1.6-6.4,2.5c2.7-0.6,5.4-1.5,8-2.6l2.8-0.6c-1-0.3-2-0.1-2.7,0.6
		C52.1,81.8,51.6,81.8,51,81.9L51,81.9z M114.8,28.2l0.4-0.3l-1.3-1.4c-1.2-2.4-3.2-3.9-5.5-5.3l2.7,2.6l2.7,2.7L114.8,28.2z
		 M169,216.4c0.3-0.7-0.1-1.4-0.7-1.7c0,0-0.1,0-0.2,0c0-0.3,0-0.6-0.1-0.9c-1.1-2.1-2.2-4.2-3.5-6.2c0.6,2.6,1.8,5.1,3.6,7.1
		L169,216.4z M11.5,101c0.6-0.3,1-0.3,1.2-0.5c1.1-1.7,2.1-3.3,3.1-5c0.1-0.3,0.1-0.6,0.1-0.9l5.2-4.7l-0.3-0.4
		c-1.9,1.4-3.8,2.8-4.8,5.1C14,96.4,12.5,98.5,11.5,101z M164.2,181.5c-1.3,1.8-2,3.9-1.9,6.1c-0.4,0.7-0.7,1.3-1.2,2.1
		c2.2,0,2.3,0,3.4-4.9c-0.1,0-0.2,0-0.2,0c-0.1,0-0.1,0.1-0.2,0.1l-0.4,0.2C163.8,184.1,164,183,164.2,181.5z M127.6,32.5l0.5-0.4
		l-1.8-2.2c-1.1-2.6-3-4.5-4.9-6.5l-0.5,0.4l0.7,0.9c1.2,1.5,2.5,3.1,3.8,4.6c0.3,0.2,0.6,0.5,0.9,0.6L127.6,32.5z M151.7,220
		c-0.7,0.9-0.2,1.4,0.3,1.9c0.5,2.6,2,4.8,3.4,7c-0.8-2.5-1.5-5-3.4-7C151.9,221.3,151.8,220.7,151.7,220L151.7,220z M56,115.5
		l0.2,0.2l1.9-1.7l2.4-1.5c0.6-0.3,1.3-0.6,2-0.8c1.9-0.4,3.7-0.8,5.6-1.1c0.8,0,1.6-0.1,2.3-0.3c-3.4-0.6-6.7-0.7-9.7,1.3
		c-0.2,0.1-0.2,0.6-0.2,0.9c-0.4-0.2-0.9-0.7-1.2-0.5c-1.7,0.7-3.6,1.1-4.6,3l-2.5,1.4c1.3,0,1.3,0,2.4-1.5l2.2-0.9
		C56.6,114.4,56.3,115,56,115.5z M127,44.6c-0.5-1.5-1.3-2.8-2.4-4c-0.9-2.4-2.5-4.5-4.5-6.1c1,2.3,2.5,4.5,4.3,6.3
		C124.9,42.2,125.8,43.6,127,44.6z M102.3,201l-0.6,0.2l1.5,3.9c0.6,2.5,1.1,5,1.8,7.4c0.4,1.3,1,2.5,1.5,3.8
		c0.8,4,2.2,7.9,4.2,11.5c2.8,5.1,6.1,9.9,7.2,15.7c0.1,0.4,0.3,0.7,0.6,1c0-2.4-0.5-4.7-1.5-6.9c-1.6-3.5-3.5-6.9-5.2-10.3
		c-1.6-3.2-3-6.4-4.5-9.6c-0.2-0.5-0.6-0.9-0.8-1.4c0-0.2,0-0.5,0-0.7c-0.9-3.1-1.8-6.2-2.7-9.3c-0.2-0.4-0.4-0.8-0.7-1.2
		C102.8,203.7,102.5,202.3,102.3,201z M30.4,163.6h0.4l-0.2-2.5c-0.1-2.9-0.2-5.8-0.2-8.6c0-0.3,0-0.6-0.1-1
		c0.3-0.3,0.5-0.7,0.7-1.1c0.6-2.2,1.2-4.5,1.7-6.7c0-0.5-0.1-0.9-0.5-1.3c-1.2,2.9-1.8,6-1.8,9.1c-1,2.8-1.1,5.9-0.3,8.8
		c0.1,0.2,0.4,0.5,0.6,0.7C30.5,161.9,30.4,162.8,30.4,163.6z M156.9,47c0.4,3.9,0.7,7.9,1.1,11.8c0.2,2,0,4-0.6,5.9
		c-0.2,1-0.4,2-0.5,3l0.5,0.2c0.4-0.8,0.8-1.6,1.1-2.5c0.9-3.1,1.3-6.3,1.2-9.5c0-0.8,0-1.6,0-2.4h0.5l0.2,4h0.3c0-1.3,0-2.5,0-3.8
		c0-0.4-0.1-0.8-0.3-1.1c-1.6-1.3-1.2-3.1-1.5-4.8c-0.4-2.5-1.1-5-2.2-7.3c1.3,4.4,2.1,8.9,2.3,13.4c-0.9-0.5-0.9-1.2-1-1.9
		C157.6,50.3,157.2,48.7,156.9,47c0.3-1.7-0.2-3.5-1.3-5c-0.8-2.3-1.6-4.5-2.4-6.8c-0.3-0.7-0.6-1.4-1.1-2c0,2.1,2.1,7.1,3.5,8.8
		C155.4,43.8,155.9,45.6,156.9,47z M153.8,183.2c-1.9,2.2-3.5,4.6-4.6,7.2l-2.1,1.9l0.5,0.4l1.5-2.4
		C151.6,188.7,153.2,186.1,153.8,183.2z M155.4,233.7l-0.6,0.2l1.2,2.6c0.9,3.1,1.8,6.1,2.7,9.2c0.2,0.9,0.6,1.7,1.1,2.4
		c0-0.4,0-0.7-0.1-1.1c-1-3.1-1.9-6.2-2.9-9.4c-0.1-0.4-0.5-0.7-0.8-1C155.7,235.6,155.6,234.7,155.4,233.7z M56,195.2
		c0.5-0.7,0.7-1.7,0.3-2.5c0.1-1.8,0.2-3.7,0.3-5.5c-0.1-1.8-0.4-3.6-1-5.3c0,3.4,0,6.5,0.1,9.6c0,0.4,0.4,0.8,0.7,1.2L56,195.2z
		 M112.7,59.6l0.5-0.4c-1.2-2-2.8-3.7-4.6-5c-2-2.7-4.4-5-7.2-6.8c2,2.7,4.4,5,7.1,6.9L112.7,59.6z M71.5,53.7l-0.2,0.5l1.8,0.5
		c2.2,1.2,4.4,2.6,6.6,3.7c1.5,0.7,3,1.1,4.6,1.4c-0.4-0.3-0.8-0.5-1.2-0.7c-2.9-1.4-5.8-2.7-8.7-4c-0.4-0.2-0.9-0.3-1.4-0.3
		L71.5,53.7z M127.7,249.1l-1.2-3.4c0-0.8-0.2-1.6-0.4-2.4c-1.4-3.5-2.9-6.9-4.6-10.3c1.3,4.3,3,8.6,5.1,12.6
		C125.9,246.9,126.2,247.9,127.7,249.1z M63.3,42.2c-0.4-0.3-0.8-0.6-1.2-0.8c-2.5-0.8-5-1.6-7.6-2.4c-2.7-0.8-5.5-1.1-8.3-1
		c-2,0-4-0.1-6-0.1c-1.6,0-3.3,0.2-4.9,0.5c6,0.5,11.9,1,17.9,1.7c2.6,0.3,5.2,1,7.8,1.6C61.7,41.9,62.5,42,63.3,42.2
		c2.9,1.1,5.7,2.2,8.5,3.3c0.3,0.1,0.6,0,0.9-0.1c0.2,0.2,0.3,0.5,0.5,0.7c3.2,1.7,6.5,3.4,9.7,5.1c0.5,0.2,1,0.3,1.6,0.3
		c-3.8-2.4-7.5-4.9-11.8-6C69.7,43.9,66.7,42.3,63.3,42.2z M132.6,227.2c0.4-1.1,0.3-2.4-0.4-3.3c-0.3-2.5-0.6-4.9-1-7.3
		c-0.5-2.8-1.3-5.6-2.3-8.3c0.1,0.5,0.3,1.1,0.4,1.6c0.8,4.1,1.5,8.2,2.3,12.2c0.2,0.6,0.4,1.2,0.6,1.7
		C132.4,225,132.5,226.1,132.6,227.2L132.6,227.2z M95.3,137.6c0.4-0.6,0.3-1.5-0.3-1.9c0,0,0,0-0.1,0c-0.8-4.4-2.9-8.3-6.2-11.4
		c0.5,0.9,1.2,1.8,1.6,2.7c1.2,2.2,2.2,4.4,3.4,6.6c0.4,0.7,0.8,1.3,1.2,2C95.1,136.3,95.2,136.9,95.3,137.6L95.3,137.6z
		 M133.7,215.1c-0.6-3.1-1.3-6.2-2-9.3l-0.6,0.1c0.6,3.1,1.2,6.3,1.9,9.4c0.3,1.1,0.7,2.3,1.1,3.4c0.8,3,1.5,6.1,2.4,9.1
		c0.4,1.2,0.9,2.4,1.4,3.6c0.2,0.5,0.8,0.8,1.3,1.2c-0.4,0.6-0.3,1.5,0.4,1.9c0.1,0.1,0.2,0.1,0.3,0.2l-0.8-2
		c-1.4-3.9-2.7-7.8-4.1-11.7c-0.3-0.7-0.6-1.4-1-2.1C134,217.4,133.9,216.2,133.7,215.1L133.7,215.1z M95.8,50.6
		c1.8,1.9,4,3.5,6.4,4.6c2.2,2.2,4.5,4.4,6.7,6.5c1,1,2,1.8,3.5,3.1c-0.3-0.8-0.4-1.2-0.6-1.4c-3-2.7-5.9-5.4-8.9-8.1
		c-0.2-0.1-0.5-0.1-0.7-0.1C100.6,53,98.1,51.8,95.8,50.6z M55,71.3l10.1-2.3c-3-0.6-10.3,0.9-13.8,3.3l-1.9,0.4l0.2,0.5l1.7-0.9
		C52.5,71.9,53.8,71.6,55,71.3z M49.8,51.6c-0.1,0.2-0.2,0.4-0.2,0.6c1.9,0.4,3.5,1.7,5.7,1.5c1.2,0.5,2.5,1.1,3.7,1.6
		c2.9,1.1,5.8,2.3,8.8,3.2c-4-2.1-7.8-4.6-12.5-4.7L49.8,51.6z M98.7,200.1h-0.4c0.2,0.8,0.3,1.6,0.4,2.5c0,1.8,0,3.5,0.1,5.2
		c0.2,1.9,0.6,3.8,1.1,5.6c0.3,0.9,0.8,1.7,1.3,2.5c-0.7-4.3-1.4-8.5-2.1-12.7c0-0.2-0.3-0.5-0.5-0.7V200.1z M99.1,55.2
		c-1-0.8-2-1.5-3.2-2.1c0.8,1.6,2.5,2.2,3.7,3.2c3.1,2.8,6.1,5.5,9.2,8.3c0.2,0.2,0.7,0.2,1.1,0.3c0.2,0.6,0.1,1.4,0.5,1.8
		c3.2,3.1,6.1,6.4,9.8,8.8c0.1,0.1,0.3,0,0.7,0c-0.2-0.2-0.4-0.5-0.5-0.7l-9.2-8.8c-0.4-0.4-0.9-0.7-1.3-1c-1.6-3.1-4.4-5-7.1-7
		c-1-0.7-1.7-2.1-3.2-1.6C99.4,55.9,99.4,55.4,99.1,55.2z M89.1,30.9l0.2-0.5c-1.5-0.8-3-1.7-4.5-2.5c-1-0.5-2-0.9-3.1-1.3
		c-0.8-0.2-1.7-0.7-2.5,0.1c-0.3-0.4-0.7-0.7-1.2-1c-2.8-1.2-5.8-2-8.8-2.2c-1.4-0.1-2.8-0.4-4.2-0.6c0,0.2-0.1,0.4-0.2,0.5
		c0.5,0.3,1,0.5,1.5,0.6c4.4,0.3,8.7,1.2,12.9,2.5L89.1,30.9z M123.1,64.7c1,1.4,2.2,2.7,3.5,3.9c-0.3-2.1-2-3.4-3-5.1
		s-2.3-3.2-3.8-5.2c-0.1,1-0.1,1.4-0.2,1.8l-1,0.5l1.1,1.5c-0.1-0.9-0.1-1.5-0.2-2.1C120.8,61.6,121.9,63.2,123.1,64.7z M39.4,171
		h-0.5l0.5,3.1c1.2,6,1.8,12.1,1.9,18.1c0.2-0.6,0.4-1.3,0.4-2c-0.2-3.3-0.4-6.7-0.7-10c-0.1-1.2-0.3-2.4-0.6-3.5
		c-0.3-0.9-0.7-1.7-1.1-2.5C39.4,173.1,39.4,172.1,39.4,171z M106.2,41c0.1-0.2,0.3-0.3,0.4-0.5l-2.5-1.8c-2.1-2.3-4.5-4.3-7.1-6
		c-1.7-1.2-3.6-2.2-5.4-3.2c-0.5-0.3-1.1-0.4-1.7-0.2c1.1,0.7,2.2,1.3,3.3,2c3.1,2.1,6.2,4.3,9.3,6.5c0.5,0.3,1.1,0.6,1.7,0.8
		L106.2,41z M65.3,30.4V30l-2.2,0.2c-0.1-0.2-0.2-0.6-0.3-0.6c-5.2-1.3-10.6-1.8-16-1.4c-0.1,0-0.2,0.2-0.3,0.4l16.6,1.7L65.3,30.4z
		 M99.2,220.5c1.7,7.1,3.3,14.3,8.4,19.9l0.5-0.2c-0.5-1-1-2.1-1.6-3c-2.6-4.6-4.7-9.5-6.2-14.6C99.9,221.9,99.6,221.2,99.2,220.5
		c-0.3-1.6-0.6-3.3-0.8-5l-2.3-23.7h-0.3c-0.1,1.4-0.1,2.8,0,4.2c0.6,6.2,1.3,12.3,2,18.5c0,0.3,0.4,0.7,0.5,1
		C98.7,217.2,98.9,218.9,99.2,220.5L99.2,220.5z M80.9,65c0,0.1-0.1,0.3-0.1,0.5l3.5,0.8c0.6,0.5,1.2,0.9,1.9,1.3
		c3.8,1.5,7.6,3,11.4,4.5c1.8,0.7,3.6,1.5,5.4,2.3l0.3-0.5c-1-0.5-2-1-3.1-1.4c-5.1-2-10.2-4-15.2-6c-0.2,0-0.5-0.1-0.7,0
		C83.2,65.7,82.1,65.2,80.9,65z M89.6,89.9c-4.3-0.9-8.7-1.8-13.2-1.1c0.6,0.8,2.5-0.2,2.1,1.6h2.9v-0.1l-1.5-0.2v-0.5
		c0.7,0,1.4,0,2.1,0c2.9,0.3,5.7,0.6,8.6,1c0,0.4,0.1,0.8,0.2,1.2l3.1,1.6l-1.5,0.1c-2.2-1.5-4.8-1.7-7.3-2
		c-3.9-0.5-7.8-0.8-11.8-1.1c-1-0.1-2.1,0-3.1,0c-1.4,0-2.7-0.2-4.1-0.1c-2.8,0.2-5.6,0.4-8.4,0.7c-1.9,0.2-3.8,0.6-5.7,1
		c-1,0.3-2,0.7-2.9,1.1l0.2,0.5c0.3,0,0.6,0.1,0.8,0c2.6-1.2,5.5-1.8,8.4-1.5c0.6,0,1.3,0,1.9-0.1c3.3-0.9,6.7-1.1,10-0.7
		c6.4,0.6,12.9,0.6,19.3,2.1c0.9,0.1,1.8,0.2,2.6,0.2l2.1,1.2c-0.4-0.7-0.6-1-0.7-1.3c0.9,0.2,2.1,0.1,2.8,0.6
		c2.4,1.9,5.3,1.4,8,1.9c-0.5-0.2-0.9-0.3-1.4-0.5c-1.2-0.5-2.7-0.4-3.7-1.8c-0.5-0.7-2.1-0.7-3.1-1c-0.6-0.1-1.3-0.2-1.9-0.3
		c-1.5-0.2-2.9-0.8-4-1.7C90.2,90.4,90,90,89.6,89.9z M162,239.8l0.6-0.2c-0.4-0.9-0.8-1.8-1.2-2.6c0-0.3,0-0.7-0.1-1
		c-2.5-6.1-5.5-12-9.1-17.5c0.5,1,1,2.1,1.5,3.1c1.5,3.4,3,6.7,4.6,10.1c0.7,1.5,1.5,3,2.3,4.5c0.2,0.3,0.5,0.5,0.8,0.8
		C161.5,237.9,161.8,238.8,162,239.8L162,239.8z M94.3,233.4c-0.9-1.4-1.9-2.8-2.8-4.2c0-0.2,0-0.3,0-0.5c-2.2-5-4.4-10-6.8-15.4
		c0.1,2.8,0.8,5.5,2,8c1.1,2.6,2.6,5,3.9,7.5c0.1,0.2,0.5,0.4,0.8,0.5C91.8,231,92.8,232.5,94.3,233.4L94.3,233.4z M105.8,37.4
		l-0.4,0.3l1.5,1.6c3.2,3.2,6.4,6.4,9.5,9.8c1.4,1.7,2.8,3.5,4,5.4c0.2-1.4-0.3-2.8-1.2-3.8c-2.4-2.4-4.8-4.9-7.3-7.3
		c-1.2-1.2-2.4-2.4-3.7-3.5c-0.4-0.3-0.9-0.4-1.4-0.5L105.8,37.4z M30.8,74.1c-4.3,1.5-8.1,4.2-11.9,6.8c-0.3,0.2-0.4,0.5-0.4,0.9
		c1.6-0.9,3.2-1.8,4.7-2.6c2.9-1.8,5.9-3.2,9.2-4.1c0.7-0.2,1.3-0.6,1.8-1c0.6,0,1.2,0,1.9-0.2c3.1-1.1,6.2-2.2,9.3-3.3
		c0.2-0.1,0.3-0.3,0.9-0.8c-3.8,0.8-7.5,1.9-11.1,3.3C33.6,72.4,32.2,73.6,30.8,74.1L30.8,74.1z M43.5,150.3c-0.4,1.7-0.2,2.2,1,3.4
		c0.1,0.9,0.3,1.9,0.5,2.8c2,5.8,4.1,11.5,6.3,17.2c0.9,1.9,2,3.7,3.3,5.3c-0.6-1.9-1.2-3.8-1.9-5.6c-0.4-1.2-1-2.4-1.5-3.5
		c-2.1-5.3-4.3-10.6-6.4-15.8c0-0.1-0.2-0.1-0.4-0.2C44.1,152.5,43.8,151.4,43.5,150.3L43.5,150.3z M143.4,54.9
		c-0.1,4.5,2.3,8,3.9,11.8c0.5,1.4,1.6,2.6,3,3.2c-0.3-0.5-0.6-1-1-1.5c-1.5-2.3-2.6-4.8-3.1-7.5c-0.7-3.8-1.7-7.5-3.2-11
		c-0.3-0.5-0.7-1-1.1-1.5c-1-2.4-1.8-5-3.1-7.3c-2-3.8-4.3-7.5-6.6-11.2c-1.2-1.9-2.6-3.6-3.9-5.3c-1.3,0.8-0.5,1.4-0.2,1.9
		c2.1,3,4.3,6,6.2,9.1c2.4,3.9,4.5,7.9,6.8,11.9c0.2,0.3,0.5,0.6,0.8,0.8C142.4,50.6,143.4,52.7,143.4,54.9L143.4,54.9z M76.5,42.9
		c-1.5-1-3.2-1.6-5-1.7c-0.6-0.4-1.3-0.8-2-1.2c-8.8-3.5-18.3-4.9-27.7-4.1c-1.4,0.1-2.7,0.4-4,0.8c3.2,0,6.4,0.1,9.6,0
		c6.9-0.5,13.9,0.8,20.2,3.6c0.9,0.4,1.8,0.8,2.7,1.1c0.4,0.1,0.9-0.2,1.3-0.2C73,42.2,74.7,42.8,76.5,42.9L76.5,42.9z M121.2,206.8
		c1,2.6,1.8,5.3,2.8,7.9c1.4,3.3,2.9,6.6,4.4,9.9c0.1,0.2,0.3,0.4,0.7,0.4c-0.8-2.3-1.4-4.7-2.3-7c-2.4-6.1-5-12.2-7.5-18.3
		c-0.4-0.7-0.7-1.4-1.2-2c-0.2-0.6-0.3-1.2-0.5-1.8l-0.5,0.2l1,1.5c0,0.8,0.1,1.7,0.1,2.5c-0.9-2-1.8-4-2.7-6c0.7,2.7,1.2,5.5,3,7.9
		v-1.2C119.4,202.9,120.4,204.7,121.2,206.8L121.2,206.8z M24,70.5c4.5-1.6,9.1-3,13.1-4.3c-4-0.1-13.1,2.3-16.3,5.3l1.4,0.2
		c-0.7,0.5-1.4,0.9-2.2,1.3c-2.4,1.4-4.9,2.8-7.3,4.2c-0.3,0.2-0.7,0.4-1.1,0.5l0.4,0.6c0.4,0.1,0.9,0.3,1.2,0.1
		c0.7-0.4,1.4-0.8,2-1.4c5.2-3.9,11.1-6,17.2-7.8c1.8-0.5,3.6-0.8,5.4-1.3c0.7-0.2,1.2-0.6,1.7-1c-5,0.7-9.9,2-14.6,3.9
		c-0.9,0.4-1.8,0.6-2.8,0.8C22.7,71.3,23.3,70.8,24,70.5z M149.2,64.5c0.3-1.7-1.3-9.1-2.4-11.7c0-0.7-0.1-1.5-0.2-2.2
		c-1.1-5.9-3-11.6-5.4-17c-0.7-1.3-1.5-2.6-2.4-3.9c-0.1-0.1-0.4,0-0.9,0c0.2,0.6,0.4,1.1,0.6,1.5c1,1.8,1.9,3.7,2.9,5.5
		c0.5,0.9,1,1.6,0.3,2.6c-0.1,0.1,0,0.5,0.1,0.7c1.4,4,2.8,8,4.3,12c0.1,0.2,0.4,0.4,0.6,0.6C146.1,56.9,148.1,60.6,149.2,64.5
		L149.2,64.5z M33.2,152.1c-0.2,4.4,0.9,8.6,2.1,12.8s2.1,8.4,3.6,12.5c-0.3-2.1-0.4-4.2-0.9-6.2c-0.8-3.2-1.7-6.4-2.6-9.5
		c-1.5-4.9-2-10.1-1.5-15.2c0.3-2.9,1.1-5.6,3.4-7.8c0.9-0.9,2.1-1.8,1.8-3.8c-4.4,4-5.9,9-6.7,14.4c-1.4,3.8-1,7.8-0.7,11.7
		c0.1,1.8,0.3,3.7,0.7,5.5c0.1-2.8,0.2-5.7,0.2-8.5s-0.2-5.8-0.3-8.7C32.7,150.1,33,151,33.2,152.1L33.2,152.1z M60,101.3
		c-3,0.8-5.9,2.3-8.3,4.3c-1.4,1.2-3,2.2-4.4,3.4c-1.1,0.9-2,1.9-2.7,3.1c0.4-0.3,0.8-0.5,1.2-0.8c3.8-3.1,7.5-6.4,12.3-8
		c3.5-1.1,7.1-2,10.7-2.7c3.5-0.7,7.1-1.2,10.7-1.8v-0.5l-3.1,0.2v-0.9h2.5c0-0.2-0.1-0.4-0.1-0.6l-2.4,0.7
		C70.9,99,65.4,99.9,60,101.3L60,101.3z M103.5,239.9c-0.8-1.3-1.6-2.6-2.5-3.9c-0.2-0.3-0.8-0.3-1.3-0.5c-0.5-1.4-1-2.8-1.7-4.2
		c-2.5-4.4-4-9.1-5.9-13.8c-2-4.8-2.8-9.9-3.8-14.9c-1.1-5.3-1.5-10.7-1.2-16.1c0-0.4-0.1-0.8-0.2-1.1c-0.9,5.9-1.3,11.9,0.3,17.7
		c2,7,3.2,14.1,6.1,20.8c1.8,4.1,3.5,8.1,6.4,11.5C100.4,237.4,101.7,239,103.5,239.9z M115.3,54.4c-4.1-6.8-9.8-12.4-16.6-16.5
		c-4-2.4-8-4.8-12.1-7c-2.3-1.1-4.6-2.1-7-2.9l-0.2,0.5c0.8,0.5,1.6,0.9,2.4,1.3c5.9,2.7,11.5,5.8,16.8,9.5
		c4.6,3.1,8.9,6.7,12.7,10.7c2.2,2.6,4,5.4,5.4,8.5l-0.6-0.3l-0.3,0.2l1.5,2.3l0.2-0.1L117,59C117.1,57.2,116.1,55.8,115.3,54.4
		L115.3,54.4z M138.2,22.5l2.6,4.3c1.6,3.3,3.5,6.5,4.8,9.9c1.7,4.2,3,8.5,4.4,12.7c0.9,2.7,1.7,5.4,2.5,8.1
		c0.5,1.7,0.7,3.5,1.1,5.2c0.2,1,0.6,1.9,1.1,2.8c0.1-4-0.5-8-1.6-11.8c-1.4-4.2-2.5-8.5-4-12.6c-1.7-4.7-3.6-9.2-6.9-13.1
		c-0.5-0.4-1-0.8-1.5-1.1C141.2,24.7,140.9,24.3,138.2,22.5L138.2,22.5z M93.3,145.2c0.1-0.2,0.5-0.3,0.5-0.3
		c-0.7-3.2-0.7-6.5-2.7-9.2c0,0-0.1,0-0.2,0c0.7,3.6,1.3,7.2,1.9,10.8c-0.1,0.5-0.3,1-0.2,1.4c2.6,7.9,1.7,16,1.3,24.1
		c-0.2,3.6-0.7,7.2-0.9,10.8c-0.3,8.4-0.3,16.8,1.8,25c0,0.1,0.2,0.2,0.6,0.8c-0.1-1.5,0-2.5-0.2-3.6c-1-9.1-1.2-18.3-0.7-27.5
		c0.3-6.1,0.2-12.3,0.2-18.4c0-3.7-0.3-7.4-0.5-11.1c0-1-0.1-1.9-1.5-1.4C93,146.1,93.1,145.7,93.3,145.2L93.3,145.2z M48.1,87.8
		c-1.4,0.4-2.7,0.9-4,1.6l1.4,0.1c-1.7,0.8-3.4,1.7-5.2,2.4C35,94.1,30,96.7,26,100.9c-1.3,1.3-3.2,2-4.6,3.3
		c-2.5,2.4-4.8,4.9-7.2,7.4l0.3,0.4c1.3-1.2,2.7-2.4,4-3.5c1.2-1,2.3-2.1,4-2.5c0.8-0.3,1.5-0.9,2.1-1.6
		c6.3-6.8,14.4-11.8,23.3-14.2c0.4-0.1,0.7-0.3,1-0.6c1.1-0.1,2.2-0.3,3.3-0.5c10.1-3,20.7-4.2,31.3-3.7c6.1,0.4,12.2,1.4,18.1,3
		c3.5,1,7.2,1.8,10.8,2.4l-7.4-3.6c-0.2,0.5-0.3,0.8-0.4,1c-7.8-2.9-16-3.7-24.2-4.2c0.9-0.1,1.9-0.1,2.8-0.2s2.1,0,3.1,0v-0.5
		c-3.8,0-7.7-0.1-11.5-0.1c-2.1,0-4.3,0.4-6.4,0.5h0.1C61.4,84,54.7,85.7,48.1,87.8z M21.2,97.6c3.3-3.5,7.2-6.6,11.4-9
		c7.5-4,15.4-7.5,23.9-9c7.4-1.3,14.8-2.7,22.3-2.8c4.8-0.2,9.7,0.2,14.4,1.4c1.2,0.3,2.5,0.4,3.8,0.3c-2.3-1.1-4.8-1.7-7.4-1.9
		c-1.9-0.1-3.9-0.2-5.8-0.4c-0.8-0.1-1.5-0.3-2.3-0.5c0.9-0.1,1.9-0.2,2.8-0.2c1.2,0,2.4,0.1,3.6,0.1c-10.3-3.1-33.9-1.1-46.4,6.2
		c1.9-0.4,3.7-1,5.5-1.7c6.3-2.8,13.1-4,19.9-4.8c4.5-0.5,9.2-0.2,13.7-0.2c0.3,0,0.7,0.4,1,0.6c-2.7,0-5.4,0.1-8.2,0.1
		c-5.8,0-11.6,0.8-17.2,2.3c-7.4,2-14.7,4.2-21.5,7.7c-5.3,2.7-10.3,5.9-13.9,10.8c-0.6,0.6-1.2,1.2-1.9,1.7l-1.2,1.4
		c0.6-0.1,1.6,0.3,1.2-0.8C20,99.2,20.5,98.2,21.2,97.6L21.2,97.6z M143.4,195.6c0.1,3.2,0.9,6.3,2.3,9.1c-0.1-1.1-0.3-2.2-0.4-3.3
		s-0.2-2.2-0.3-3.3s-0.2-2.1,1.3-2.3c0.1,0.6,0.2,1.2,0.3,1.8c0.3,3,0.5,5.9,0.8,8.9c0.2,0.7,0.4,1.4,0.8,2.1l1.5-2.9
		c0.4,0.8,0.6,1.5,1,1.8s1-0.2,1.7-0.4l3.1,7.7c0.1-2.5-1.2-4.7-1.2-7.1c1.7,1.3,1.5,3.4,2.2,5c0.6,1.7,1.4,3.4,2.2,5
		c0.3-3.3-2.3-5.9-2.1-9.5c2,1.1,1.2,3,1.8,4.3s1.2,2.9,1.7,4.3l0.5-0.2c-0.3-1.1-0.6-2.1-0.8-3.2c-0.3-1.4-0.5-2.8-0.6-4.2
		c-0.1-1.1-0.2-2.3,1.7-2c0.8,0.1,1-1,1-1.9c0.1-2.1,0.4-4.3,0.7-6.5h-2.2c2.1-1.9,3.6-3.7,6-4.5s1.8-2.9,2-4.8
		c-3.2,2.2-6.8,3.8-10.5,4.9c-3.9,1-7.8,0.9-11.7,1.3C145.4,194.8,144.4,195.4,143.4,195.6L143.4,195.6z M135.2,69.6
		c-2.8-5.8-5.3-11.7-8.4-17.4c-2.5-4.8-5.7-9.2-8.5-13.8c-3.2-5.1-7.2-9.7-11.9-13.6c-3.6-3.2-7.4-6.2-12.8-7.5
		c2.2,1.2,4.3,2.5,6.3,4c3.7,3,7.6,6,10.8,9.5c4.2,4.7,7.9,9.8,10.9,15.3c1.3,2.3,2.8,4.5,4,6.9c1.7,3.4,3.2,6.8,4.8,10.3
		c1.1,2.6,2.7,5,4.6,7.2C135.2,69.7,135.2,69.7,135.2,69.6z M84.5,79.6v-0.4h6.9c-5.1-1.6-17.8-1.9-22.6-0.4h13.9
		c0,0.1,0,0.3,0.1,0.4c-0.3,0.1-0.6,0.1-0.9,0.2c-4.2,0.2-8.4,0.2-12.5,0.5c-6.6,0.5-13.1,1.7-19.3,3.8c-6.4,2-12.2,5-18.1,8
		c-1.1,0.6-2.1,1.5-2.8,2.5c0.5-0.3,1.1-0.5,1.6-0.8c5.7-3.3,11.7-6.1,17.9-8.4c6.4-2.5,13.1-3.9,20-4.2c6.8-0.2,13.5-0.4,20.3-0.5
		c1.6,0.1,3.2,0.2,4.8,0.4v-0.5L84.5,79.6z M107.3,174.2c0.7,5,1.8,10,3.4,14.8c1.6,5.3,3.6,10.5,5.9,15.5c2.2,5,4.4,10,6.7,14.9
		c1.5,3.2,3.3,6.2,5.3,9.1c-0.7-1.7-1.4-3.5-2.2-5.2c-3.7-8.3-8.1-16.2-11.3-24.8c-2.3-5.7-4.1-11.5-5.5-17.5
		c-1.2-6.2-2.5-12.5-2.7-18.8c0-0.3-0.1-0.6-0.2-0.8l-0.5,0.1C106.6,165.8,106.9,170,107.3,174.2L107.3,174.2z M100.4,229.8
		c-1.9-5.4-4-10.8-5.2-16.5c-0.9-4.6-2.6-9-3-13.6c-0.2-2.6-0.4-5.3-0.4-7.9c0-3.9,0.1-7.7,0.2-11.6c0.1-1.8,0.2-3.6,0.2-5.5
		c-5.2,17.1,3.1,51,9.4,58.9C101.3,232.4,100.9,231.1,100.4,229.8L100.4,229.8z M37.1,151.6c1.4,5.9,3.5,11.6,6.1,17
		c1.7,4,2.8,8.3,3.3,12.6c0.6,4.4,0.5,8.9-0.3,13.2c-0.1,0.6-0.1,1.1,0.1,1.7c0.9-1.5,0.5-3.2,0.7-4.9c0.2-1.8,0.5-3.5,0.9-5.2v4.9
		h0.4c0.1-0.9,0.2-1.9,0.2-2.8s-0.1-1.9-0.2-2.9c-0.7-7.9-3.1-15.3-6-22.5c-1.5-3.7-2.8-7.6-4.1-11.4c-1-2.6-1.1-5.5-0.3-8.2
		C35.7,145.8,36.4,148.7,37.1,151.6z M72.1,57.6c-7-3.1-13.9-6.2-21-9c-4.4-1.8-8.8-3.5-13.7-3.7c-1.5-0.1-2.9,0-4.4,0.1
		c-0.6,0-1.2,0.1-2,0.2c0.4,0.3,0.6,0.7,0.9,0.7c7.5-0.2,14.4,2.2,21.2,4.8c4.3,1.6,8.5,3.7,12.8,5.5c4.5,1.9,9.1,3.8,13.6,5.6
		c0.2,0,0.5,0,0.7,0c0.1-0.1,0.1-0.2,0.2-0.3C77.6,60.3,74.9,58.9,72.1,57.6L72.1,57.6z M27.7,127.7c2.3-3.5,4.9-6.8,7.3-10.2
		c3.3-4.9,7.9-8.7,12.1-12.7c1.1-1.1,2.5-2,3.7-3.1c-2.2,0.6-4.3,1.7-6,3.2c-3,2.5-5.6,5.3-8,8.3c-6,7.1-10.8,15-15.5,23
		c-0.1,0.2-0.2,0.5-0.5,1.1C24.6,134.9,25.6,130.9,27.7,127.7z M91.2,161.6c0.5,3.7-0.5,7.1-1.2,10.7c-1.1,4.9-1.7,10-1.6,15
		c0.1,3-0.2,6,0.1,8.9c0.7,7.3,2.3,14.5,4.8,21.4c0.1,0.3,0.3,0.6,0.6,0.7c-0.5-2.1-0.8-4.2-1.4-6.3c-2.7-9.6-3.3-19.5-2.8-29.4
		c0.3-3.8,0.9-7.7,1.6-11.5c0.5-3,1.1-6,0.5-9.1c-0.1-0.9-0.1-1.7,0-2.6l-0.3-0.1C91.3,160,91.2,160.8,91.2,161.6L91.2,161.6z
		 M57.7,84.3c3.9-0.8,7.9-1.5,11.9-1.9c4.1-0.4,8.2-0.5,12.3-0.4c4,0.1,8,0.7,12,1.1s7.7,2.5,11.8,2.3c0-0.2,0.1-0.4,0.1-0.5
		c-0.6-0.2-1.1-0.5-1.7-0.7c-6.1-1.9-12.6-2.9-19-2.8c-6.5,0.1-13,0.2-19.5,0.6c-6.5,0.5-13,2.1-19,4.7c-0.3,0.2-0.7,0.4-1,0.6
		l0.2,0.1C49.8,86.4,53.7,85.2,57.7,84.3z M60.2,89c0.5-0.2,1.1-0.3,1.7-0.3c5.6,0.3,11.2-1,16.8-1c3.7,0,7.4,0.2,11.1,0.6
		c4,0.5,8,1.4,12,2.1c0.7,0.1,1.4,0.1,2.1,0.1c-16-6-36-4.9-48.5-0.9C57,89.5,58.6,89.3,60.2,89L60.2,89z M92.7,40.1
		c6.2,3.4,11.8,7.8,16.6,13.1c1.7,1.9,3.3,3.7,5.1,5.6c-0.4-1.7-1.2-3.3-2.4-4.7c-4.7-5.1-9.6-10-15.8-13.4
		c-5.3-2.9-10.8-5.5-16.2-8.2c-0.2-0.1-0.4-0.1-0.7-0.1l-0.1,0.3C83.8,35.3,88.3,37.7,92.7,40.1L92.7,40.1z M38.5,98.4
		c-0.6,0.7-1.3,1.2-2.1,1.6c-4.9,3-9.2,6.9-12.6,11.4c-2.4,3.2-5,6.3-7.5,9.4c-0.2,0.3-0.3,0.7-0.5,1.1c3-1.8,4.2-4.7,6.3-6.9
		c4.2-4.2,8.2-8.7,12.6-12.6c2.5-2.3,5.8-3.7,8.8-5.5c0.7-0.4,1.4-0.8,2-1.1l-0.2-0.4C42.9,95.9,40.2,95.8,38.5,98.4L38.5,98.4z
		 M55.6,75c0.5-0.2,1.1-0.3,1.6-0.4c8.4-1.6,16.9-1.8,25.5-1.9c2.8,0.1,5.6,0.4,8.4,0.8c-9.8-4.7-38.3-0.5-45.5,5.1
		C48.9,77.4,52.2,76.2,55.6,75L55.6,75z M79.6,118.7c0.3,1.4-1.8,2.9,0.6,4.1c0-0.5-0.1-1-0.2-2c0.6,0.5,1.1,0.7,1.3,1.1
		c2.9,4.8,5.2,10,6.8,15.4c1.6,5.8,2.4,11.9,2.6,17.9c0.5-0.8,1-1.2,0.9-1.6c-0.1-2.8-0.3-5.6-0.5-8.3c-0.5-3.5-1.3-7-2.5-10.3
		c-1.2-3.8-3.3-7.2-5-10.7c-0.4-0.9-0.7-1.9-1-2.9L79.6,118.7z M41.3,104.3c-0.4,0.1-0.7,0.3-1.1,0.5c-5.1,4.2-9.5,9.1-13,14.7
		c-2.3,3.7-4.8,7.4-7.2,11.1c-0.7,1-1.2,2.2-1.7,3.4l0.5,0.3C25.4,123.7,32.6,113.5,41.3,104.3L41.3,104.3z M29.5,128.2
		c3.3-4.8,7-9.4,11-13.8c3.4-3.8,7.2-7.3,11.4-10.4c3.4-2.5,7.1-4.5,11.4-4.9c1.5-0.2,2.9-0.6,4.2-1.2c-0.4-0.1-0.9-0.1-1.3-0.1
		c-5.5,0.3-10.8,2.3-15.1,5.7c-5.8,4.4-11,9.5-15.5,15.2c-2.4,3.1-4.6,6.4-6.9,9.6c-0.2,0.3-0.4,0.7-0.6,1l0.3,0.3
		C28.7,129.2,29.1,128.7,29.5,128.2L29.5,128.2z M156.7,57.3c-0.6-3-1.4-6-2.3-9c-1.6-4.6-3.4-9.2-5.2-13.7
		c-0.4-1.1-0.9-2.2-2.6-2.4c4.7,9.4,7.1,19.3,9.9,29.2l0.5-0.1C157,60,156.9,58.6,156.7,57.3z M150.2,53.9
		c-0.9-3.7-1.9-7.3-3.1-10.9c-1.7-4.2-2.7-8.8-5.5-12.6c-0.5-0.7-0.9-1.6-1.4-2.3c-0.3-0.4-0.8-0.6-1.2-0.6c0.1,0.3,0.3,0.7,0.5,1
		c4.3,6.9,6.7,14.4,8.3,22.3c0.2,0.9,0.5,1.8,0.9,2.7c1.2,3.3,2.3,6.6,3.5,9.9c0.2,0.3,0.3,0.6,0.6,0.9l0.3-0.1
		C152.1,60.8,151.2,57.3,150.2,53.9L150.2,53.9z M86.2,205c0.2,11.8,4.9,21.8,11.8,31.1C91.8,226.5,89,215.7,86.2,205L86.2,205z
		 M63.6,31.3c-6.1-1.1-12.3-1.3-18.4-0.6c12.3-0.2,23.8,3.2,35.3,7.4C75.4,34.7,69.7,32.4,63.6,31.3z M87.2,147.3c0,2.9,0,5.8,0,8.7
		c0,1.4-0.3,2.9,0.7,4.2c0.2,0.5,0.3,1.1,0.2,1.6c-0.4,4.2-1.2,8.4-2.4,12.5c-0.1,0.2-0.3,0.4-0.3,0.7c0,3.7,0,7.5,0.1,11.2
		c0.3-2.8,0.7-5.5,1-8.2c0.5-3.5,1-7,1.6-10.5c0.8-4.4,0.5-8.8,0.3-13.2c-0.1-3-0.5-6-0.8-9h-0.5L87.2,147.3z M63.5,61.7
		c-5.8-2.1-11.5-4.5-17.7-7c0.7,0.7,0.9,1.1,1.2,1.3c2.3,1.1,4.7,1.9,6.9,3.2c3.5,2.1,7.4,3.1,11.2,4.2c1.5,0.4,3,0.8,4.4,1.4
		c3.7,1.6,7.6,2.5,11.6,2.6C75.3,65.5,69.3,63.8,63.5,61.7z M105.3,184c1.1,6.7,3.5,13,6.1,19.3s4.8,12.5,8.2,18.3
		C114,209.4,110.6,196.3,105.3,184L105.3,184z M165,67.9c1.9-4,2.6-8.5,2-12.9c-0.2-1.8-0.3-3.6-0.5-5.5c-0.1-1.9-0.9-3.8-2.3-5.2
		c-0.2,1.8,0.1,3.7,0.8,5.4c1.5,4.9,1.4,10.2-0.3,15.1c-0.9,3-2.3,5.8-4.2,8.3c-0.1,0.1-0.1,0.4-0.2,0.9
		C162.4,72.5,164,70.4,165,67.9z M46.3,31.9c-0.1,0.2-0.2,0.3-0.2,0.5c0.5,0.4,1,0.7,1.6,1c0.7,0.1,1.4,0.1,2.2,0.1
		c7.4,0,14.5,1.6,21.5,3.7c2.6,0.8,5.2,1.6,7.8,2.4l0.2-0.5C68.7,35.2,58,31.5,46.3,31.9L46.3,31.9z M81.3,52.5
		c6.8,3.9,13.3,8.1,19.9,12.3c-5.6-6.3-32.8-21.3-41.2-22C67.1,46,74.5,48.6,81.3,52.5L81.3,52.5z M61.8,92.7
		c-2.2,0.4-4.4,0.6-6.7,0.8c-1.1,0.2-2.2,0.4-3.3,0.7c-0.6,0.2-1.4,0.4-1.7,0.9c-0.9,1.9-2.8,2.2-4.4,3c-1.7,0.9-3.3,2-4.8,3.1
		c-0.3,0.2-0.2,0.8-0.3,1.3l0.4,0.2c1.3-1,2.6-2.1,4-3c3.9-2.5,7.7-5.1,12.7-5.4c3.7-0.2,7.4-1.2,11.2-1.8c1-0.1,2-0.2,3-0.2
		C68.5,92,65.1,92.1,61.8,92.7z M167.7,51.1c-0.1,1.3-0.1,2.7,0,4c0.9,6-0.5,12.1-3.8,17.2c-0.4,0.6-0.8,1.2-1.2,1.8
		C169.7,68.7,171.8,59,167.7,51.1L167.7,51.1z M13.8,88.7c0.9-0.4,1.7-0.9,2.5-1.5c4.3-3.6,9.3-5.9,14.4-8.1
		c1.6-0.7,3.1-1.6,4.7-2.5c0.3-0.2,0.5-0.5,0.8-0.9C32.7,75.3,16,84.8,13.8,88.7z M36.6,128.8l1-1c0.4-0.4,0.8-0.8,1.2-1.2
		c3.6-5.5,8.3-10.2,13.8-13.9c2.8-1.9,5.6-3.8,8.5-5.8C53.5,108.6,41.9,119,36.6,128.8z M50.8,189.7c0.2-5.2-0.5-10.3-2.1-15.2
		c-1.3-4.2-3.2-8.3-4.8-12.4c-0.1-0.2-0.3-0.4-0.8-0.5c0.3,0.9,0.7,1.9,1.1,2.8c2.5,5.5,4.1,11.4,4.9,17.4c0.3,3.2,0.4,6.4,0.6,9.7
		C50.9,191.4,50.7,190.6,50.8,189.7z M75.7,28.2c-3.8-1.4-7.8-2.3-11.9-2.7c-0.1,0.2-0.1,0.3-0.2,0.5c1,0.4,2,0.8,3,1.1
		c3,0.9,6.1,1.4,9,2.5c4.6,1.8,9,3.9,13.4,5.8c0.5,0.2,1,0.5,1.5,0.7l0.2-0.5C85.8,33,81,30.2,75.7,28.2L75.7,28.2z M69.9,54.5
		c-4-1.9-8-4-12.2-5.7c-3.5-1.5-7.1-2.5-10.7-3.7c-0.4-0.1-0.8-0.1-1.2,0l28.1,12l0.3-0.5C72.8,55.9,71.4,55.2,69.9,54.5L69.9,54.5z
		 M107.1,65.5c-2.5-3.5-23.5-17.5-27.4-18.3L107.1,65.5z M71,62.9c-2.3-0.9-4.6-1.9-6.9-2.8c-3.9-1.7-7.7-3.5-11.7-5
		c-3-1.1-6.2-1.9-9.3-2.8C45.5,54.1,68,62.6,71,62.9L71,62.9z M131.2,26.5c0.3,0.6,0.7,1.1,1.1,1.6c3.6,5.2,6.7,10.8,9.3,16.6
		c0.2,0.3,0.4,0.6,0.6,0.9c0.1-4-6.2-16.2-10.8-20.6C131.2,25.6,131,26.2,131.2,26.5L131.2,26.5z M94.4,62.5
		c-2.6-3.1-25.3-14-29.6-14.2C75,52.2,84.5,57.7,94.4,62.5L94.4,62.5z M117.7,222.1c-3.4-8.5-6.9-17-10.3-25.5
		C107.7,201.7,114.6,218.7,117.7,222.1L117.7,222.1z M38.9,102.9c-7.9,5.9-14.4,13.5-19,22.2C25.9,117.5,31.7,109.5,38.9,102.9z
		 M19,60.4c0,0.2,0,0.4,0,0.5c0.6,0.1,1.1,0.1,1.7,0.1c3.4-0.3,6.8,0.1,10.3-0.4c3.4-0.5,6.9-0.4,10.2,0.5c0.4,0.1,0.9,0.1,1.3,0
		v-0.6C34.8,59,26.8,59,19,60.4L19,60.4z M31.4,94.6l-0.3-0.4c-1.3,0.9-2.7,1.6-4,2.6s-2.7,2.1-4,3.1s-2.8,2.2-4.1,3.4
		c-1.3,1.1-2.5,2.3-3.6,3.6c-1.1,1.3-1.9,2.8-2.8,4.2C18.5,105.1,24.8,99.6,31.4,94.6L31.4,94.6z M88.2,21.9l19,12.7
		C102.1,28.4,95.6,24.6,88.2,21.9L88.2,21.9z M24.1,86.6c-0.4,0.2-1.1,0.5-0.4,1.3c0.1,0.1-0.5,0.9-0.7,1.5
		c5.4-3.1,9.9-7.5,15.1-10.8c-0.2-0.2-0.3-0.4-0.4-0.6C33.1,80.9,28.6,83.7,24.1,86.6z M21.3,120.1c0.3-0.9,1.2-1.7,1.8-2.5
		c2.7-3.8,5.8-7.3,9.1-10.5c0.1-0.2,0.2-0.4,0.2-0.6c-5.5,4.5-10.7,9.4-13.8,16C19.6,121.9,20.8,121.6,21.3,120.1L21.3,120.1z
		 M77.7,46.1c-1.7-2.2-18-8.3-22.8-8.1L77.7,46.1z M134.2,232.5c1.7,5.6,4.1,11,7.2,16c1.6,2.6,3.5,4.2,7.3,6.2
		c-3.6-3.2-7.2-6.5-9.3-11s-3.8-9-5.6-13.5h-0.1C133.9,231,134,231.8,134.2,232.5z M86.1,44.1c-2-1-4-2-6.1-2.8
		c-4-1.3-8.2-2.4-12.3-3.3l18.3,7.5C85.9,45.1,84.4,44.8,86.1,44.1z M154.9,237.7c-0.2,0.2-0.3,0.3-0.3,0.3
		c1.1,5.3,2.2,10.5,3.4,15.8c0.2,0.9,0.2,2.1,1.9,2.7C158.8,250.1,157.1,243.8,154.9,237.7z M38.9,58.6c-4.7-1.8-14.2-2.1-18.8-0.4
		L38.9,58.6z M121.9,51.3c3.2,4.1,4.6,9.1,7,13.5c0.7,1.3,1.5,2.6,2.5,3.8c-2.3-6.6-5.7-12.8-9-19C121.5,50.1,121.6,50.7,121.9,51.3
		L121.9,51.3z M33.9,65.4c-8,1-15.5,2.9-21,9.4C19.6,70.8,25.9,66.2,33.9,65.4L33.9,65.4z M96.7,158.9c1.5-2.1,0-15.1-2.4-20.3
		C95.2,145.4,96,152.1,96.7,158.9L96.7,158.9z M115.7,26.1c0.3,1.5,1.2,2.9,2.3,3.8c3.5,3.9,6.7,8.1,9.4,12.5l2.4,3.9
		C128.3,41.2,119.9,29.4,115.7,26.1L115.7,26.1z M113.5,225.4c-1-1.7-2.4-3.3-3.1-5.1c-1.5-3.5-2.6-7.2-3.9-10.9
		c-0.1-0.5-0.4-1-0.7-1.4c1.4,8,4.2,15.4,9.8,21.6C114.9,228.2,114.3,226.7,113.5,225.4L113.5,225.4z M41.9,118.6
		c2.4-2.1,4.7-4.2,7.1-6.2s5-3.9,7.5-5.9l-0.4-0.4C50.6,109.3,45.1,112.6,41.9,118.6z M77.1,33.2c5.7,4.3,12,7.6,18.1,11.2
		C89.8,39.8,83.7,36,77.1,33.2z M163.4,64.2c0.6-5.6,0.5-11.2-0.2-16.8c-0.1-0.3-0.2-0.5-0.5-0.6c1.6,8.3,0.5,16.9-3.2,24.5
		C161.5,69.2,163.1,67.1,163.4,64.2L163.4,64.2z M39.8,56c-5.7-3.8-12-4.4-18.6-3.1C27.6,52.9,33.9,53.9,39.8,56L39.8,56z
		 M40.5,148.9c0.8,2.6,1.4,5.3,2.4,7.8c1.5,4,3.3,7.9,5.3,11.7c-0.1-0.4-0.2-0.9-0.3-1.3c-1.5-3.8-3-7.7-4.4-11.5
		c-0.7-1.7-1.3-3.5-1.8-5.2c-0.3-1.6-0.5-3.2-0.5-4.8C40.4,146.5,40.2,147.8,40.5,148.9L40.5,148.9z M82.1,214.7
		c0,4.1,4.5,13.4,8.3,16.3L82.1,214.7z M82.4,166.6c-1.5,5.2-3.7,10.1-4.7,15.4C80.4,178.9,83,170,82.4,166.6L82.4,166.6z
		 M168.7,255.9c2.2-7.5-0.5-14.2-3.4-20.9C166.7,241.8,169.7,248.5,168.7,255.9L168.7,255.9z M105.2,174c0.2,3.2,0.3,6.4,1.5,9.5
		s2.2,6.4,3.2,9.5c0.1,0.4,0.3,0.7,0.6,1c-1.5-6.9-4.3-13.6-5.2-20.8C105.4,173.5,105.3,173.7,105.2,174L105.2,174z M45.9,102.5
		c1.4-0.7,2.8-1.4,4.2-2.1c1.4-0.8,3-1.5,4.6-2c1.6-0.4,1.7-2.5,3.5-2.3C52.8,95.8,49.3,99,45.9,102.5z M140.7,211.2
		c1.1,6.7,1.8,13.4,4.5,19.8C143.6,224.4,142.8,217.7,140.7,211.2z M84.8,208c0.1,0,0.2,0,0.2,0c0.1,0,0.1-0.1,0.1-0.2
		c0-0.4,0-0.8,0-1.2c-0.5-7.1-0.9-14.3-1.3-20.5C83.6,192.8,82.9,200.4,84.8,208L84.8,208z M102.8,213.9c0.2,3.8,4.8,14.4,7.6,17
		C107.9,225.3,105.4,219.8,102.8,213.9L102.8,213.9z M134.8,54.6c-0.9-5.5-2.9-10.8-6-15.5l-0.4,0.3L134.8,54.6z M162.9,254.3
		c0.9-3-1.6-11.6-4.3-15.8C160,244,161.4,249.2,162.9,254.3L162.9,254.3z M96.7,170.5c-0.7,1.6-1.4,16.4-0.9,19.4
		C96,183.5,97.8,177.1,96.7,170.5L96.7,170.5z M41.9,42.7c5.2,1.9,10.7,2.1,16.2,3C52.9,43.7,47.4,42.7,41.9,42.7z M27.3,104.5
		l-0.2-0.3c-1,0.5-1.9,1.1-2.7,1.8c-2.3,2.6-4.4,5.3-6.5,8c-0.6,0.8-1.1,1.7-1.5,2.7l0.4,0.2L27.3,104.5z M99.9,90.7
		c-2.8-0.6-5.7-1-9.1-1.5c1.8,1,3.7,1.6,5.7,1.9c1.5,0.3,3.1,0.5,4.7,0.7c1.3,0.2,2.5,0.4,3.8,0.7s2.2,0.7,3.3,1.1
		c0.1-0.2,0.1-0.5,0.2-0.7C105.6,92.1,102.7,91.3,99.9,90.7z M17,80.6c0.4-0.1,0.8-0.3,1.2-0.5c4.9-2.8,9.7-5.7,14.6-8.5
		C27.2,74,21.4,76,17,80.6z M136.5,221.2c0.1-3.2-3.3-18.8-4.9-21L136.5,221.2z M161.6,46.5c0.1,3,0.3,6,0.2,9s-0.6,5.9-0.9,8.8
		C163.1,58.6,163.4,52.3,161.6,46.5L161.6,46.5z M172.7,227.6c0-2.6-1.4-4.3-2.4-6.1c-2.1-3.9-4.4-7.7-6.7-11.6l-0.5,0.3
		L172.7,227.6z M52.3,90.6c0-0.1-0.1-0.3-0.2-0.5c-5.5,1.2-10.8,3.3-15.6,6.3L52.3,90.6z M170.6,57.6c0,5.4,0.5,10.8-2.8,15.6
		C171.6,69,172.7,63,170.6,57.6L170.6,57.6z M98.3,198.2v-16.4C97,187.1,97,192.8,98.3,198.2z M17.9,103.2c0.6-0.5,1.2-0.9,1.8-1.4
		c1.9-1.6,3.8-3.2,5.7-4.8c1.1-0.8,1.7-2.1,1.8-3.5C23.7,96.4,20.6,99.6,17.9,103.2L17.9,103.2z M148.5,187.2
		c1.3-2.1,2.2-4.4,4.2-6.1c1.3-1,2-2.6,1.9-4.2c-4.2,3.7-6,8.9-8.7,13.5l0.5,0.3C147.1,189.5,147.8,188.3,148.5,187.2L148.5,187.2z
		 M28.3,135.2c-3.2,3.9-4.2,8.6-5.2,13.3l0.6,0.2L28.3,135.2z M67,71c-5-1.1-9.5,0.9-14.2,2.1l0.1,0.5L67,71z M28.9,137.5l8.7-15.3
		l-0.4-0.2C33.6,126.6,30.8,131.9,28.9,137.5z M160.9,180.4c-3.2,3-4.7,7.2-7.3,10.6C157.4,188.5,159,184.3,160.9,180.4L160.9,180.4
		z M71.4,203.5c0.2,4.7,0.9,9.2,3.3,13.4c-1.4-4.8-2.5-9.5-2.1-14.5l-0.5-0.1C71.8,202.6,71.4,203.1,71.4,203.5L71.4,203.5z
		 M52.9,195.1c2.1-1.9,2.4-10,0.5-13.7C53.7,185.8,54,190.3,52.9,195.1L52.9,195.1z M165.8,257.2l0.3-0.1c-0.5-3.2-0.9-6.5-1.3-9.7
		c-0.1-0.9-0.3-1.7-0.7-2.5c-0.1-0.3-0.7-0.4-1.3-0.6C163.9,248.9,164.8,253,165.8,257.2L165.8,257.2z M63.6,95h14.7
		c0-0.2,0-0.4,0-0.6C73.4,93.3,68.5,94.1,63.6,95z M32.6,51.1c3.6,1.3,7.2,2.6,10.8,3.9c0.7,0.2,1.2,0.4,1.6-0.6
		C40.9,52.7,36.8,51.6,32.6,51.1z M173.4,240.8c-0.1-5.1-1.7-10-4.5-14.1C170.4,231.4,171.9,236.1,173.4,240.8z M136.3,209.9
		c1.2,5.4,1.5,10.9,3.5,16.1C138.7,220.6,138.4,215.1,136.3,209.9z M104.3,191.9c0.1-0.1,0.3-0.2,0.3-0.2c-1-4.5-1.9-9.1-2.9-13.6
		C101.2,182,102.7,188.8,104.3,191.9L104.3,191.9z M18.4,130.2c0.2,0.2,0.2,0.3,0.3,0.3c0.1,0,0.2,0,0.2,0c2.5-3.8,5-7.6,7.5-11.5
		c0.1-0.2,0.1-0.4,0.2-0.6C23.3,121.9,20.5,125.9,18.4,130.2L18.4,130.2z M90.6,121.7c-2.5-4.3-6.6-6.9-10.1-10.2l-0.3,0.4
		L90.6,121.7z M148.1,234.9c-0.5-2.7-1-5.5-1.5-8.2c-0.5-2.7-1-5.3-1.5-8C145.1,224.2,146.1,229.7,148.1,234.9L148.1,234.9z
		 M36.4,82.5c1.7-1.8,3.6-3.3,5.8-4.5c-0.5,0-1.2-0.3-1.5-0.1c-3.1,2.3-6.1,4.6-9.2,6.9l0.4,0.6C33.4,84.5,35.1,83.7,36.4,82.5z
		 M25.5,136.4l0.5,0.3c2.4-3.7,4.9-7.4,7.3-11.1l-0.5-0.3C30.1,128.8,27.6,132.5,25.5,136.4L25.5,136.4z M84.2,163.4
		c0.3-1.5,0.4-3,0.5-4.5c0-0.2-0.1-0.5,0-0.7c1.2-1.6,0.2-3.1-0.3-4.6c-0.5,3.7-1,7.4-1.5,11.1l0.4,0.2
		C83.7,164.5,84,164,84.2,163.4L84.2,163.4z M165.2,241.1c-0.1,1-0.1,2,0,3c0.5,2.8,1.1,5.6,1.7,8.4c0.2,0.4,0.4,0.7,0.6,1.1
		C167.5,249.2,166.7,245,165.2,241.1L165.2,241.1z M169,236l0.5-0.2c-1.2-4.5-3.2-8.7-5.7-12.5C165.5,227.5,167.2,231.7,169,236
		L169,236z M42.8,56c1.8,3,2.8,3.7,8.7,4.5L42.8,56z M119.5,233.2c-1.4-4.5-4.4-8.2-6.5-12.2C114.6,225.3,116.7,229.4,119.5,233.2
		L119.5,233.2z M116.5,184.4c1.3,4.3,4.4,7.8,6.1,11.9C121.4,191.8,119,188.1,116.5,184.4L116.5,184.4z M81.5,190.7
		c0.1,0,0.3,0,0.5,0c0.1,0,0.1,0,0.2-0.1c0.1-0.1,0.2-0.3,0.2-0.4c0.3-3.7,0.6-7.3,0.9-11C81.7,182.8,81.1,186.8,81.5,190.7
		L81.5,190.7z M171.3,255.5c1.6-4.8-0.1-9-1.4-13.6C170.3,246.7,170.7,250.9,171.3,255.5L171.3,255.5z M98.2,45.7l-0.5,0.4L96,46.8
		c0,0.2,0,0.4,0.1,0.5c2,1.3,4,2.7,6,4c0.2,0.1,0.4,0,1.2,0.1L98.2,45.7z M126.5,47.1c1.7,3.5,3.4,7,5.1,10.6l0.7-0.3
		C131,53.7,129,50.2,126.5,47.1L126.5,47.1z M172.5,62.6c-0.1,1.9-0.3,3.8-0.5,6c1.7-3.7,1.9-8,0.5-11.8
		C172.6,58.8,172.6,60.7,172.5,62.6L172.5,62.6z M100,199.7l1.7,11.6C102.6,207.3,101.4,203.5,100,199.7z M30,146
		c-1.9,3.4-2.5,7.4-1.7,11.2C28.8,153.5,29.4,149.9,30,146L30,146z M35.7,62.4v0.5L50,64C45.2,63,40.5,62,35.7,62.4L35.7,62.4z
		 M96.8,56c-1.4-2.1-7.6-6-10.4-6.5L96.8,56z M112.8,82.3c-0.5-0.2-1.2,0.1-2.2,0.2l10.4,3.4l0.2-0.8
		C118.4,84.2,115.6,83.2,112.8,82.3L112.8,82.3z M130.6,242.3c1,3.5,2.1,7,3.1,10.5C134.1,248.9,132.3,245.7,130.6,242.3
		L130.6,242.3z M57.6,187.5h0.7c0-3.3-0.2-6.5-0.8-9.7l-0.5,0.1L57.6,187.5z M114,186.7c-0.9-2.4-1.9-4.8-3-7.2
		c0.3,2.9,0.9,5.8,2.1,8.6l0.5,0.1C113.8,187.7,114.1,187.1,114,186.7L114,186.7z M79.6,198.5c-0.8,4.1,0.1,7.9,0.9,11.6l0.6-0.1
		C80.6,206.3,80.1,202.5,79.6,198.5L79.6,198.5z M84.2,225.1c-0.4-0.9-0.8-1.7-1.2-2.5c-0.5-0.8-0.9-1.7-1.2-2.6
		c-0.3-1-0.3-2.1-1.6-2.5C80.9,220.3,81.9,223,84.2,225.1L84.2,225.1z M105.9,67.7c1.4,2.7,5.6,5.8,8.4,6.2L105.9,67.7z M99.4,165.2
		c0.3-4.6,0.7-9.2-0.5-13.7C99,156,99.2,160.6,99.4,165.2z M29.3,81.5c-3.5,1.6-6.7,3.6-9.7,6C23.1,86,26.4,83.9,29.3,81.5z
		 M21.3,65.6L34,62.6C29.3,62.3,25.3,64,21.3,65.6L21.3,65.6z M55.5,35.2l11,2.4C63.1,35.5,59.2,35.7,55.5,35.2L55.5,35.2z
		 M161,184.8c-1.5,2.5-2.8,4.6-4.3,7.2C159.4,190.8,160.3,189.3,161,184.8z M142.5,242.3c1.1,3.3,3.2,6.2,6.1,8.2L142.5,242.3z
		 M153.1,242.8c-0.9-3.9-1.7-7.9-2.6-11.8C150.1,233.8,151.6,240.6,153.1,242.8L153.1,242.8z M93.1,102.8l-3.3,0.6
		c0.9,0.6,1.8,0.9,4.2,1.3c1.5,0.2,3.1,0.7,4.6,1l0.1-0.5l-6.3-1.6L93.1,102.8z M116.1,174l-0.4,0.2c1.3,2.8,2.7,5.6,4.1,8.5
		l0.6-0.2C119.2,179.4,117.8,176.6,116.1,174L116.1,174z M67.2,108c-1.7-1.5-3-0.2-4.2,0.2c-1.3,0.5-2.6,1-3.8,1.6l0.2,0.4L67.2,108
		z M127.7,240.4c1,3.4,1.9,6.2,2.8,9.1c0.1,0.2,0.3,0.3,0.5,0.6C130.9,246.6,129.7,243.2,127.7,240.4L127.7,240.4z M19.7,110.3
		l-1-1.1c-1.1,1.9-2.1,3.6-3.1,5.3l0.5,0.4C17.3,113.3,18.4,111.8,19.7,110.3z M124.3,94.9l0.2-0.5L113.9,91l-0.2,0.5L124.3,94.9z
		 M132.2,52.7c1.1,3.2,2.1,6.1,3,9C135.2,58.5,134.1,55.3,132.2,52.7z M99.5,70.7c-2.6-1.7-5.2-3.3-8.3-3.8l-0.2,0.5L99.5,70.7z
		 M36.2,136.3l5.3-6.7l-0.5-0.4C38.8,131.1,37.2,133.6,36.2,136.3L36.2,136.3z M115,76.1l-7.5-4.8l-0.3,0.4
		C109.5,73.7,112.1,75.2,115,76.1z M44.1,122.4c-0.3,1.4-1.5,1.6-2.6,2.1c-0.2,0.1-0.3,0.4-0.6,0.8c2.1-0.1,3.8-0.5,4.7-2.9
		C45.1,122.4,44.6,122.4,44.1,122.4z M80.1,187.1c0.6-2.9,1.2-5.9,1.7-8.8h-0.5C80.2,181.1,79.8,184.2,80.1,187.1L80.1,187.1z
		 M73.6,207.4h0.3v-11.1h-0.3V207.4z M168.9,222.6c-1.1-1.9-2.2-3.8-3.5-5.6c1,2.8,2.7,5.3,4.1,7.9l0.5-0.2
		C169.6,224,169.3,223.3,168.9,222.6L168.9,222.6z M135.9,252.4c0.1,0.2,0.5,0.2,1.3,0.4c-1.1-2.5-2-4.5-2.9-6.6l-0.4,0.2
		C134.6,248.4,135.3,250.4,135.9,252.4L135.9,252.4z M110.9,211.5l-0.5,0.2l3.8,8.3l0.6-0.2L110.9,211.5z M63.1,96
		c0,0.2,0,0.4,0,0.6l9.8-0.5C69.6,95.9,66.4,95.8,63.1,96z M83.7,119.6c-0.2-1.8-2-4-4.9-5.7L83.7,119.6z M166.7,182.1
		c0.8-0.8,1-1.9,1.3-2.9s0.8-2.2,1.2-3.3C167.6,177.5,166.7,179.7,166.7,182.1L166.7,182.1z M40.6,49.3c-2.6-1.5-6.9-2.4-9.4-2
		L40.6,49.3z M78.7,196c0.3-2.7,0.5-5.4,0.8-8.1C77.7,190.5,78.5,193.3,78.7,196L78.7,196z M105,80.4c0.2,0,0.4-0.1,0.9-0.3
		c-1.8-0.9-3.3-2.3-5.4-0.9C102.1,79.7,103.6,80.1,105,80.4z M98,169.7l-0.4-8.8C97.4,163.9,97.1,166.8,98,169.7L98,169.7z
		 M45.7,64.7h-5.4C42,65.5,44,65.5,45.7,64.7z M126.4,194.2c0-2.3,0.1-4.5-2-6.2C125.1,190.1,125.8,192.2,126.4,194.2z M44.8,33.3
		c-2.9-1-3.5-1-6.2,0.5L44.8,33.3z M148.9,176.4c0.9-0.3,2.1-1.7,4.1-4.8C151.1,173.1,149.5,174.2,148.9,176.4z M162.6,215.6
		c-0.5-2.3-1-4.6-1.5-6.9C160.4,211.2,161.3,213.5,162.6,215.6z M79.3,220.8c-0.1,2.2,1.1,3.5,2.4,4.9l0.5-0.3L79.3,220.8z
		 M124.1,198.7l-0.6,0.2c0.2,2.2,2,3.9,2.5,6.1l0.5-0.3C125.7,202.7,124.9,200.7,124.1,198.7z M129.8,223.1c0.3-2.2-0.3-4.4-1.6-6.1
		C128.8,219.3,129.3,221.2,129.8,223.1L129.8,223.1z M99.9,180.4h0.3c-0.1-2.5-0.3-5-0.5-7.5h-0.5L99.9,180.4z M120.6,188.2l0.5-0.2
		c-0.7-2.2-1.8-4.2-3.3-5.9C118.7,184.2,119.7,186.2,120.6,188.2L120.6,188.2z M11.5,97.5c-1.4,1.2-2.7,2.4-2.3,4.5L11.5,97.5z
		 M100.9,23.7c-1-1.8-2.1-2.6-5.1-3.4L100.9,23.7z M172.1,179.6l-0.4-0.2c-0.8,1.6-1.5,3.2-2.3,4.8
		C171.2,183,171.5,181.2,172.1,179.6z M47.9,155.7l-0.5,0.2c-0.1,1.8,1,3.3,1.5,4.9l0.5-0.2C48.9,158.9,48.4,157.3,47.9,155.7z
		 M128.2,190.2c0.2,1.7,0,3.5,1.5,4.6l0.5-0.2C129.6,193.1,128.9,191.6,128.2,190.2z M122.8,55.9c0.9,1.5,1.7,2.8,2.5,4.2
		C124.7,56.6,124.2,55.9,122.8,55.9z M35.2,148.7c-0.7,2.5-0.6,3,1.1,4.9L35.2,148.7z M38.8,149c0.4-2.1,0.8-4.1,1.3-6.5
		C38.8,144.4,38.3,146.7,38.8,149L38.8,149z M165.2,174.2l3.8-2.6C166.8,171.3,165.9,172.6,165.2,174.2z M70.1,22.7l0.1-0.3
		c-0.9-0.2-1.7-0.4-2.6-0.5s-1.8-0.3-2.8-0.4v0.5L70.1,22.7z M110.9,40.6l0.3-0.3l-4.2-3.6l-0.1,0.2L110.9,40.6z M24.6,91l4.2-3.3
		C26.7,87.9,25.5,89.3,24.6,91L24.6,91z M65.3,113l4.6-0.5c0-0.2,0-0.3,0-0.5C68.3,112,66.6,111.6,65.3,113L65.3,113z M33.7,137.6
		l2.8-4.5C34.2,134.1,34,135.8,33.7,137.6z M157.3,178.7c1.1-0.7,2-1.7,2.5-2.9C158.2,176.1,157.9,177.6,157.3,178.7z M43.1,194h0.2
		v-6.8h-0.2V194z M109.1,165l-0.6,0c0.2,1.8,0.4,3.7,0.7,5.5h0.3L109.1,165z M164.9,59.5h0.2v-6.6l-0.2,0.1L164.9,59.5z M17.1,62.2
		c1.4,1.3,2.6,0.3,3.9,0.2c0-0.2,0-0.4,0-0.5L17.1,62.2z M134.1,47l0.5-0.2l-2.5-4.9l-0.6,0.3L134.1,47z M136.8,245.5l0.5-0.2
		l-2.4-4.4l-0.6,0.4L136.8,245.5z M38.4,139.3l-2.3,2.8C39,141.3,39,141.3,38.4,139.3L38.4,139.3z M59.4,183.1h-0.2v6h0.2V183.1z
		 M175.8,242c-1.1,1.3-1.1,1.3-0.6,4.5C175.4,245.1,175.6,243.7,175.8,242L175.8,242z M57.4,24.7c-1.3-1-2.4-1.9-4.2-0.6L57.4,24.7z
		 M16.6,68.3c0,0.2,0.1,0.3,0.2,0.5l4.4-1.4c0-0.2-0.1-0.4-0.2-0.5L16.6,68.3z M35.9,177.3c1.2-1.7,0.3-3,0-4.3V177.3z M106.5,230.5
		l0.5-0.3l-2.2-3.7l-0.5,0.2L106.5,230.5z M33.1,89.5l0.2,0.4l3.5-1.8l-0.3-0.6L33.1,89.5z M118.8,27.3l0.3-0.3l-3-3.1l-0.4,0.4
		L118.8,27.3z M74.5,116.3l3.9,1.6C77.6,116.5,76,115.9,74.5,116.3L74.5,116.3z M19.5,77.1l-0.3-0.4l-3.5,2.3
		c0.1,0.2,0.2,0.3,0.3,0.5L19.5,77.1z M175,178.7l-0.6-0.2l-1.5,3.6l0.5,0.2L175,178.7z M70.6,106.9l3.3,1.5
		C73.4,107.2,72.6,106.3,70.6,106.9z M80,110l2.9,2l0.3-0.4C82.4,110.9,81.8,109.9,80,110z M84.8,166.2l-0.6-0.1
		c-0.2,1.3-0.3,2.6-0.5,3.9h0.5C84.4,168.8,84.6,167.5,84.8,166.2z M159.6,171.2c2.1,0.7,3.1-0.3,4.3-0.8l-0.3-0.5L159.6,171.2z
		 M58.8,180.6h0.3l-0.5-4.4l-0.5,0.2L58.8,180.6z M142.1,198.8c0.1-2.5,0-2.7-2-3.7L142.1,198.8z M158.1,37l-0.5,0.2l1.8,3.2
		l0.3-0.4L158.1,37z M35.3,49.4v-0.3l-3.9-0.6v0.3L35.3,49.4z M154.2,217.4l-0.5,0.2l1.6,3.3l0.4-0.2
		C155.2,219.6,154.7,218.5,154.2,217.4z M57.2,63.7c0.1-0.2,0.1-0.4,0.2-0.5c-0.9-0.6-1.9-1-3-1.1l-0.3,0.6L57.2,63.7z M119.9,196
		l-1.7-2.8C118.1,194.6,118.5,195.6,119.9,196L119.9,196z M76.9,191.9h-0.4l-0.2,3.8h0.6V191.9z M127.2,201.2l-0.5,0.1l1,3.5
		l0.5-0.1C128,203.6,127.6,202.4,127.2,201.2L127.2,201.2z M64.2,105.2l0.1,0.4l3.3-1.3c0-0.1-0.1-0.3-0.1-0.5L64.2,105.2z
		 M90.8,83.8v0.3l3.7,0.6l0-0.4L90.8,83.8z M42.4,178.1l-0.4,0c0.2,1.2,0.4,2.4,0.6,3.6l0.5-0.1C42.9,180.5,42.7,179.3,42.4,178.1
		L42.4,178.1z M61.3,114.7c0.1,0.2,0.1,0.4,0.2,0.5l3.1-1l-0.3-0.5L61.3,114.7z M18.3,64.9c-1.7-0.3-1.8-0.3-3.2,1L18.3,64.9z
		 M43,145.1c-1.4,1.3,0,2.4,0,3.4V145.1z M104.2,196.3l0.4-0.1c-0.4-1.2-0.7-2.4-1.1-3.7l-0.5,0.2L104.2,196.3z M84.5,103.6v-0.3
		l-2.6-0.7c0,0.2,0,0.4-0.1,0.6L84.5,103.6z M104.8,26.3l-0.3,0.4l2.3,2.1l0.3-0.3L104.8,26.3z M105.7,200.4l1,3.2l0.6-0.2
		C106.9,202.3,106.8,201.1,105.7,200.4L105.7,200.4z M140.5,199.7l0.4-0.2l-1.3-2.8l-0.7,0.3L140.5,199.7z M147.7,183.9
		c-1,0.3-1.8,0.6-1.1,2L147.7,183.9z M116.2,177.7l-0.5,0.3c0.4,0.7,0.8,1.4,1.1,2.1c0.1,0,0.3-0.1,0.4-0.1L116.2,177.7z M72.5,17.3
		v0.4h3.7v-0.2L72.5,17.3z M139.6,65.3l-0.5,0.2l0.8,2.3l0.5-0.2C140.1,66.9,139.9,66.1,139.6,65.3L139.6,65.3z M81.5,124.5
		l-0.4,0.2l1.3,2.9l0.5-0.2C82.4,126.4,81.9,125.4,81.5,124.5L81.5,124.5z M120.2,245.2l0.4-0.1c-0.2-1.1-0.4-2.2-0.6-3.3l-0.4,0.2
		C119.8,243.1,120,244.2,120.2,245.2z M131.7,229.3c-0.6,1.8-0.6,1.8,0.6,3.6C132,231.5,131.9,230.5,131.7,229.3z M70.2,114.4
		c1.5,0.6,1.5,0.6,3.6,0H70.2z M26.6,152.7l0.3,0.1l0.7-3.2l-0.4-0.1C27,150.6,26.8,151.7,26.6,152.7z M161.7,221.6l0.6-0.2
		l-1.1-2.9l-0.6,0.3C161,219.7,161.3,220.6,161.7,221.6z M75,193.7l0.5-2.8C74.8,191.6,74.2,192.5,75,193.7L75,193.7z M84.8,112.4
		c-0.1,1.2,0.7,1.5,1.2,2l0.4-0.4L84.8,112.4z M102.8,164.8c1-1.2,0.4-1.8,0-2.9V164.8z M104.5,159.8h-0.4c0.1,0.9,0.2,1.8,0.3,2.7
		l0.5-0.1L104.5,159.8z M12.2,87.8c-1.5,0-1.8,0.9-2.3,1.5l0.4,0.4L12.2,87.8z M151.7,213.1l0.3-0.1l-0.9-2.5l-0.4,0.2
		C151,211.5,151.4,212.3,151.7,213.1z M10.5,83.3c0.9-0.4,1.9-0.6,2.3-1.7l-0.5-0.5L10.5,83.3z M82.7,24.2l0.2-0.5L80,22.6
		c-0.1,0.2-0.1,0.3-0.2,0.5L82.7,24.2z M13.6,68.2c-1.6-0.8-1.7,0.4-1.9,1.4L13.6,68.2z M168.2,236.9l-0.5,0.1l0.8,2.8l0.6-0.1
		C168.7,238.9,168.5,237.9,168.2,236.9L168.2,236.9z M76.3,202.9H76c0,0.8,0.1,1.5,0.1,2.3l0.7-0.1
		C76.7,204.5,76.5,203.7,76.3,202.9L76.3,202.9z M65.6,59.6l0.2-0.4L63,58.1l-0.2,0.5L65.6,59.6z M174.3,171.6c0.5,1,0.5,1,2,1.2
		L174.3,171.6z M93.4,37.3l-0.2,0.4l2.3,1.5c0.1-0.2,0.2-0.3,0.3-0.5L93.4,37.3z M103.4,156.6l-0.5-0.1c-0.1,0.6-0.1,1.3-0.2,1.9
		l0.2,0L103.4,156.6z M35.1,168.4h-0.3v3l0.3,0.1V168.4z M100.1,194.7h-0.2v3.1h0.2V194.7z M129.3,68.9c0.3-1.3-0.1-1.9-0.8-2.2
		L128,67L129.3,68.9z M38.6,49.8c0.4,0.5,0.5,0.7,0.6,0.7c0.6,0.1,1.2,0.2,1.8,0.3c0-0.1,0-0.2,0-0.3L38.6,49.8z M129.6,38.2
		l0.3-0.2l-1-1.7l-0.4,0.2L129.6,38.2z M121.1,57.3c-0.2,0.1-0.3,0.2-0.4,0.4l1.5,1.7l0.4-0.3L121.1,57.3z M94,28.6
		c0.2,1.5,1.1,1.4,1.9,1.4L94,28.6z M81.6,45.5l0.2-0.4L79.3,44l-0.2,0.5L81.6,45.5z M81.2,203.4h0.4v-2.6h-0.3L81.2,203.4z
		 M132.2,193.8l0.3-0.1c-0.2-0.6-0.4-1.3-0.6-1.9l-0.6,0.2C131.7,192.6,132,193.2,132.2,193.8L132.2,193.8z M108.3,206.1l-0.3,0.1
		c0.3,0.7,0.5,1.4,0.8,2.1l0.5-0.2C109,207.5,108.7,206.8,108.3,206.1L108.3,206.1z M70.1,108.5c-0.1-0.2-0.2-0.5-0.3-0.5
		c-0.5,0-1.1,0-1.7,0v0.6L70.1,108.5z M123.9,228.7l-1.1-2C122.3,228.2,122.5,228.7,123.9,228.7z M161.4,255.6l0.3-0.1l-0.5-2.3
		l-0.5,0.1C160.9,254.2,161.2,254.9,161.4,255.6L161.4,255.6z M108.8,81.9l0.1-0.4l-1.7-0.7l-0.1,0.7L108.8,81.9z M32.8,42.4
		c1.5,0.9,1.5,0.9,2.9,0.3L32.8,42.4z M136.2,27.3c0,0.1,0,0.4,0,0.4c0.3,0.1,0.7,0.2,1,0.2c0-0.2,0-0.4,0-0.6H136.2z M99.4,170.7
		h0.2c0-0.7,0.1-1.4,0.1-2.1l-0.3-0.1V170.7z M87.3,182.9h0.2l0.1-2.2h-0.3L87.3,182.9z M133.6,23.5l0.3-0.2l-0.6-1.1l-0.5,0.4
		L133.6,23.5z M101.6,34.7l0.3-0.3l-1.5-1.4l-0.3,0.3L101.6,34.7z M143.7,190.5l-0.2-0.3l-1.1,1l0.3,0.3L143.7,190.5z M96.1,162.7
		H96v2.1h0.1V162.7z M85.6,47.3l0.2-0.4L84,46.1l-0.2,0.4L85.6,47.3z M10.5,85.3c0.5,0,0.7,0.1,0.8,0.1c0.3-0.4,0.6-0.7,0.9-1.1
		L11.9,84L10.5,85.3z M90.1,62.9c0-0.1,0.1-0.3,0.2-0.4l-2.1-0.9L88,62.1L90.1,62.9z M71.6,112.3c0,0.2-0.1,0.3-0.1,0.5l2.1,0.4
		l0.1-0.4L71.6,112.3z M121.7,225.5l0.4-0.2l-1.1-2.1l-0.4,0.2L121.7,225.5z M159.5,229.1l0.3-0.1l-0.7-1.9l-0.5,0.2
		C158.9,227.9,159.2,228.5,159.5,229.1z M111.6,77.5l0.2-0.3l-1.8-1l-0.2,0.5L111.6,77.5z M166.1,41.7l0.3-0.2l-0.9-1.3l-0.3,0.2
		L166.1,41.7z M118.1,32.3l0.3-0.2c-0.4-0.5-0.7-1.1-1.1-1.6l-0.5,0.3L118.1,32.3z M27.1,72.5l0.1,0.4l1.9-0.6l-0.3-0.5L27.1,72.5z
		 M149.2,242.5c0.5,1,0.7,1.6,1.2,2.7C150.6,244,150.8,243.2,149.2,242.5L149.2,242.5z M136.1,68.6l0.5-0.2
		c-0.2-0.5-0.4-1.1-0.5-1.6l-0.6,0.2L136.1,68.6z M81.3,19.3l0.1-0.3l-1.8-0.6l-0.1,0.3L81.3,19.3z M153.3,256.9l-0.1,0.4l1.5,0.4
		c0-0.1,0.1-0.3,0.1-0.4L153.3,256.9z M22.3,152.2h0.2l0.1-1.5h-0.3V152.2z M137.9,63.6l0.6-0.1c-0.2-0.7-0.4-1.4-0.6-2.1l-0.4,0.1
		L137.9,63.6z M100.9,149.6h0.2V148h-0.2C100.8,148.6,100.8,149.1,100.9,149.6L100.9,149.6z M83.3,39.3l-0.2,0.3l1.5,0.9l0.2-0.3
		L83.3,39.3z M60.6,104l0.1,0.5l1.5-0.3c0-0.1,0-0.3-0.1-0.4L60.6,104z M136.9,23l-0.2,0.1l0.7,1.4l0.4-0.3
		C137.5,23.9,137.2,23.5,136.9,23L136.9,23z M113.6,63.4l-0.3,0.2c0.3,0.4,0.6,0.8,0.9,1.2l0.3-0.2L113.6,63.4z M144.8,27.8
		l-0.3,0.3l0.9,1l0.3-0.3L144.8,27.8z M53,114.3l-0.4-0.4l-1.4,1.3l0.4,0.4L53,114.3z M27.4,141.8l-0.3-0.1c-0.2,0.5-0.4,1-0.6,1.5
		l0.4,0.1C27.1,142.9,27.3,142.4,27.4,141.8z M118.8,46.1L119,46l-0.8-0.8l-0.2,0.2L118.8,46.1z M128.5,200.2h0.2c0-0.5,0-0.9,0-1.3
		c0,0-0.1-0.1-0.1-0.2l-0.2,0.2C128.4,199.3,128.4,199.8,128.5,200.2L128.5,200.2z M161.7,229.2l-0.4,0.1c0.2,0.6,0.4,1.2,0.5,1.8
		l0.4-0.3L161.7,229.2z M83.1,205.5h-0.2v1.6h0.3C83.2,206.6,83.1,206,83.1,205.5z M82.1,205.8h-0.2v2h0.2V205.8z M20.3,108.1
		l0.2,0.4l1.1-0.7l-0.2-0.3L20.3,108.1z M98,64.6c-0.1,0.1-0.2,0.3-0.2,0.4l1.5,0.8c0.1-0.1,0.1-0.2,0.2-0.3L98,64.6z M87.5,125
		l-0.3,0.2l0.8,1l0.4-0.2C88.2,125.6,87.9,125.3,87.5,125L87.5,125z M136.6,59.1l0.3-0.1c-0.2-0.5-0.4-1-0.6-1.6l-0.3,0.3
		L136.6,59.1z M17,126.7l0.2,0.2l1-1.1c-0.1-0.1-0.2-0.2-0.3-0.3L17,126.7z M33.1,64.2v-0.2h-1.3l0,0.2H33.1z M22.7,142.8L23,143
		c0.2-0.2,0.4-0.3,0.5-0.5c0.1-0.3,0.1-0.6,0.1-0.9h-0.4L22.7,142.8z M45.6,143.3c1.3-0.6,0.7-1,0-1.6V143.3z M76.8,63.5l-0.1,0.3
		l1.5,0.7c0.1-0.1,0.1-0.3,0.2-0.4L76.8,63.5z M9.5,87.2L9.3,87l-1.2,0.9l0.5,0.4L9.5,87.2z M82.1,63.5l-0.2,0.3l1.1,0.6l0.2-0.2
		L82.1,63.5z M85.8,153l0.3-0.1c0-0.4,0-0.7-0.1-1l-0.5,0.1L85.8,153z M91.6,157h0.2l0.1-1.1l-0.4,0L91.6,157z M118.1,55.5l-0.3,0.2
		c0.2,0.4,0.4,0.8,0.6,1.1c0.1,0,0.1,0,0.2,0c0.1,0,0.1-0.1,0.2-0.3L118.1,55.5z M86.9,160.8h-0.1v1.2h0.1V160.8z M104.5,54.8
		c0.4,0.6,0.6,1,0.8,1.4l0.4-0.4L104.5,54.8z M84.8,164.5H85v-1.5h-0.2V164.5z M117.2,225.5l0.4-0.1l-0.5-1.2l-0.4,0.1L117.2,225.5z
		 M102.8,171.3h0.2v-1.1l-0.2,0.1C102.7,170.6,102.8,170.9,102.8,171.3L102.8,171.3z M135.8,202l0.2-0.1c-0.2-0.5-0.3-0.9-0.5-1.4
		l-0.4,0.3C135.3,201.3,135.5,201.7,135.8,202L135.8,202z M92.6,172.2h0.3c0-0.4,0.1-0.9,0.1-1.3h-0.5
		C92.5,171.4,92.5,171.8,92.6,172.2L92.6,172.2z M151.4,228.7l0.4-0.1c-0.1-0.4-0.2-0.8-0.3-1.2l-0.2,0.1
		C151.2,227.9,151.3,228.3,151.4,228.7z M163.1,172.8l-0.2-0.3l-1.1,0.8c0.1,0.1,0.2,0.2,0.3,0.3L163.1,172.8z M65.6,79.1v0.3
		l1.3-0.1V79L65.6,79.1z M39.7,42.9v-0.4l-1.2,0.1V43L39.7,42.9z M166.5,233l-0.3,0.1l0.4,1.5l0.5-0.2
		C166.9,233.9,166.7,233.5,166.5,233z M39,179.2h-0.2v1.2l0.3-0.1L39,179.2z M155.5,38.3l0.4-0.1l-0.5-1.4l-0.5,0.2
		C155.1,37.4,155.3,37.9,155.5,38.3z M105.1,35.2l0.2-0.3l-1.2-0.9l-0.3,0.3L105.1,35.2z M153.8,234.8l-0.2,0.1l0.4,1.1l0.2-0.1
		L153.8,234.8z M98.7,107l0.1-0.2l-1.2-0.6c-0.1,0.1-0.2,0.3-0.3,0.4L98.7,107z M97.8,75.6L97.7,76l1.1,0.5l0.2-0.3L97.8,75.6z
		 M89.5,122.1l-0.2,0.2l0.7,0.7l0.3-0.3C90,122.6,89.8,122.3,89.5,122.1z M174.8,237.3h-0.2l-0.1,1.1h0.3L174.8,237.3z M122.4,186.8
		l-0.3,0.2l0.5,1.1l0.4-0.3C122.8,187.5,122.6,187.2,122.4,186.8z M138.5,187.4v-0.2h-1.6v0.2H138.5z M113.6,23.7l-0.3,0.3l0.9,0.9
		l0.3-0.4L113.6,23.7z M132.6,188.6l0.2-0.5l-1.6-0.7l-0.2,0.5L132.6,188.6z M35.1,103.7l0.2,0.3l1.2-0.8l-0.3-0.3L35.1,103.7z
		 M139.1,69.6l0.4-0.2l-0.8-1.6l-0.5,0.3C138.4,68.6,138.8,69.1,139.1,69.6L139.1,69.6z M159.4,68.1l-0.3-0.2l-0.6,1l0.4,0.2
		L159.4,68.1z M43.3,66.7v-0.3L42,66.5c0,0.1,0,0.3,0,0.4L43.3,66.7z M90.2,102.5L90.2,102.5l-1.2-0.1v0.1H90.2z M91.7,65.3l0.2-0.3
		c-0.2-0.2-0.3-0.4-0.5-0.5s-0.4,0-1,0L91.7,65.3z M41.7,90.6l-0.1-0.4l-1.2,0.5l0.1,0.2L41.7,90.6z M136.1,253.4l-0.2,0.3l0.9,0.5
		l0.3-0.5L136.1,253.4z M153.9,255.7l0.2-0.3l-1.1-0.6l-0.2,0.5L153.9,255.7z"/>
	<path class="st0" d="M59.8,125.4c3.2,1.5,5.2,4.2,7,7.2c-2.4,0.6-4.5,1.3-6.7,1.6s-4-1.5-6.1-2.4c1.7,2.7,5.5,4.3,8.2,3.4
		c1.9-0.7,3.7-1.5,5.8-1c0.2,0.1,0.5-0.2,0.9-0.4c0.1-1.7-1.2-2.7-2-3.8c-1.8-2.2-3.9-4.3-5.9-6.4c-1.2-1.1-2.7-1.8-4.4-1.9
		c-2.2-0.3-3.7,0.8-4.9,2.5c-1.8,2.5-2.8,5.5-3,8.6c-0.1,1.5-0.3,3-0.5,4.7c1.1,0.1,1.5-0.7,1.7-1.7c0.3-1.8,0.4-3.7,0.7-5.5
		c0.5-2.8,1.9-5.3,4-7.1l1,2.2l0.5-0.4l-0.8-1.7c0.2-0.1,0.6-0.3,0.7-0.2c0.8,0.6,1.6,1.3,2.3,2L59.8,125.4z"/>
	<path class="st0" d="M76,153.9c-1.1-1.9-2-3.8-3.2-5.5c-1.4-1.9-1.7-4.3-0.9-6.4c0.2-0.5,0.2-1,0.4-1.4c0.3-0.8,0.4-1.6-0.5-2.1
		c-0.7-0.4-1.1-0.2-2.2,1c1.3,0.9,1.1,2,0.8,3.3c-0.3,1.8-0.5,3.5-0.5,5.3l-1.5,0.3c0.4,0.7,0.2,1.7-0.5,2.2
		c-0.7,0.5-1.7,0.5-2.6,1.1h1.6c2.7-0.1,5.1,0.4,7.2,2.2c0.4,0.5,1.1,0.7,1.6,0.3C75.9,154.1,76,154,76,153.9z"/>
	<path class="st0" d="M64.7,141.7c-1.2-1.8-3.2-2.9-5.4-2.8c-2.1,0-4.1-0.3-6-0.4c0.5,0.8,1.3,1.2,2.2,1.3c0.9,0.2,1.8,0.2,2.7,0.2
		c1.8-0.1,3.5,0.1,4.9,1.5C63.2,141.7,63.8,141.6,64.7,141.7z"/>
	<path class="st0" d="M55.5,145.4c2.1,3.8,3.7,4.9,5.8,4.2L55.5,145.4z"/>
	<path class="st0" d="M59,120.3c1.4,1.5,3.3,2.1,5,3c0.1-0.1,0.2-0.3,0.2-0.4l-4.9-3.2L59,120.3z"/>
	<path class="st0" d="M59.8,125.4l-1.3-0.3l2.1,3.1l0.3-0.2L59.8,125.4z"/>
	<path class="st0" d="M71.2,129.3c-0.6-1.8-2-2.4-3.2-3.6C68.5,127.1,69.2,127.8,71.2,129.3z"/>
	<path class="st0" d="M66.1,157.6l-2.5-1.9l-0.3,0.4l2.3,2L66.1,157.6z"/>
	<path class="st0" d="M69.9,156.6l1.6,1.9l0.4-0.3l-1.6-2L69.9,156.6z"/>
	<path class="st0" d="M53.6,142.7c0.5-1.4-0.2-1.6-1.1-1.8L53.6,142.7z"/>
	<path class="st0" d="M98.7,122.1l1.8,0.6c0.1-1.2-0.4-2.4-1.3-3.3c-2.6-3.2-5.7-6-9-8.4c-1.1-0.8-2.2-1.7-3.2-2.6
		c1.4,0.4,2.7,1.2,3.9,2.1c1.2,1,2.6,1.9,3.9,2.9c1.2,1.1,2.4,2.2,3.4,3.4c1.1,1.2,2,2.5,3.1,3.7c1.2-0.6,1-1.3,0.3-2
		c-1.8-1.7-3.6-3.5-5.4-5.2c-3.5-3.1-7.5-5.6-11.7-7.6c-0.4-0.1-0.8-0.2-1.2-0.2l-1,0.5c-0.3,0.9,0.5,1,1,1.3
		c1.6,1.1,3.7,1.7,4.7,3.6l-0.1,0c0.3,0,0.6,0.1,0.9,0.3c3.3,2.3,6.3,5.1,8.7,8.4C98,120.4,98.4,121.3,98.7,122.1L98.7,122.1z"/>
	<path class="st0" d="M109.4,86.2c0.5-1,1.2-0.8,2.1-0.5c2.2,0.7,4.5,1.4,6.7,1.9c2.6,0.6,5.2,0.9,7.8,1.4c0.3,0.4-0.7,1.5,0.6,1.7
		c0.3,0,0.5,0.6,0.7,1c-0.4,0.1-0.9,0.4-1.2,0.4c-5.4-1-10.7-2.5-15.7-4.6C109.9,87.1,109.7,86.5,109.4,86.2L109.4,86.2z M117,88.7
		l0.1-0.5l-2.3-0.6c0,0.2-0.1,0.4-0.1,0.6L117,88.7z"/>
	<path class="st0" d="M17.7,95.3c-0.1,0.5-0.2,1.1-0.3,1.6v0c1.8-1.1,3.3-2.6,4.4-4.4l0,0l-2.2,1L17.7,95.3z"/>
	<path class="st0" d="M112.1,37.3l-1-2l-0.7,0.1L112.1,37.3z"/>
	<path class="st0" d="M110.4,35.4l0.7-0.1l-0.5-1l-1.2-0.9c0,0.4,0,0.8,0,1.1L110.4,35.4z"/>
	<path class="st0" d="M135.4,116.7c1.3-0.9,2.6-1.7,3.8-2.7c1-1,2.4-1.4,3.8-0.9c0.2,0,0.3,0.2,0.5,0.1c3.1-1.1,5.8,0.3,8.4,1.5
		c1.4,0.8,2.6,1.8,3.8,2.8c1.6,1.2,3.2,2.4,4.7,3.5c0.1,0,0.1,0.1,0.2,0c2.9-0.4,6.1,0.4,8.6-1.9c1.3-1.4,2.1-3.2,2.2-5.1
		c-0.5-0.2-1.1-0.3-1.6-0.3c-1.6,0.1-3.2,0.3-4.8,0.3c-1.2,0-2.4-0.2-3.5-0.7c-2.9-1.4-5.6-3.1-8.5-4.4c-1.4-0.5-2.8-0.9-4.2-1.2
		c-0.7-0.2-0.9,0.3-1.3,0.7c-0.5,0.6-0.6,0.5-1.7-0.4c-2.4,1.4-4.8,2.6-7.1,4.2c-1.4,1.2-2.7,2.5-3.9,3.9L135.4,116.7z"/>
	<path class="st0" d="M146.2,133.3c-4.6-3.2-8.8-7.1-14.8-9c1.8-0.7,3,0,4.1-0.2c2.2-0.9,4.5-1.7,6.9-2.3c2.8-0.7,5.7-1.3,8.5-1.8
		c0.9,0,1.7,0.1,2.5,0.3c0,0.2,0,0.4-0.1,0.4l-15.4,3.1c1.6,0.7,3.5,0.8,5.1,0.1c3.7-1.4,7.4-1.3,11.2-1.2c1.6-0.1,3.2,0.6,4.2,1.9
		l-4.7-0.7c0.1,1.2,0.1,2.4,0,3.5c-0.3,1-0.7,1.9-1.3,2.8c-0.4,0.9-0.8,1.8-1.3,2.8c1,0.3,1.9,0.6,2.7,0.7s1.9,0.1,2.3,1.3
		c-2.9-0.6-5.7-1.2-8.5-1.7C147.2,133.2,146.7,133.2,146.2,133.3L146.2,133.3z M149.6,123.7c-1.1-0.1-2.2-0.1-3.2,0
		c-2.1,0.4-4.2,0.9-6.3,1.4c-0.5,0.1-0.9,0.3-1.5,0.5c2.6,3,6.1,5.1,9.9,6.3C147.9,129,147.4,126.3,149.6,123.7L149.6,123.7z
		 M152,125.9c-0.2-0.2-0.3-0.4-0.6-0.6c-0.2,0.2-0.5,0.4-0.5,0.6c0,0.4,0.2,0.8,0.3,1.1C151.7,126.3,152,126,152,125.9L152,125.9z"
		/>
	<path class="st0" d="M152.7,160.3c0.3,2,2.6,1.5,3.3,3.3c0.5-0.8,0.2-1.8-0.6-2.3c-1.4-1.4-1.3-2.9-1-4.6c0.4-2.1,0.5-4.3,0.6-6.4
		c0-0.3-0.2-0.7-0.6-1c-0.2,0.7-0.3,1.3-0.3,2c0.2,2.9-1.2,5.2-2.4,7.6c-1,1.9-1.7,4-2.5,6c-0.1,0.2,0.3,0.7,0.4,1
		c0.4-0.2,1-0.2,1.1-0.5C151.4,163.5,152.1,161.9,152.7,160.3z"/>
	<path class="st0" d="M88.1,111l-2.7-1.4l-5.1-2.6c1.3,1,2.6,2,4,2.8c3.2,1.9,6,4.3,8.4,7.1c2.3,2.6,4.6,5.2,6,8.5
		c0.3,0.8,0.8,0.9,1.8,0.4l-1.8-3.8l0.1,0.1c-0.3-0.2-0.6-0.5-0.9-0.8c-2.2-2.5-4.5-5-6.8-7.5C90.1,112.9,89.1,111.9,88.1,111
		L88.1,111z"/>
	<path class="st0" d="M162.7,162.4l-1.7-0.9c0.3,1.6,1,2,2.2,1.8c2.2-0.3,4.4-0.6,6.7-0.8c1.1,0,2.2,0.1,3.3,0.4
		c-0.4-0.4-0.6-0.8-1-1c-1.6-0.7-3.2-1.4-4.9-1.8c-1.6-0.4-3.2-0.2-3.9,1.8C163.3,162,163,162.1,162.7,162.4z"/>
	<path class="st0" d="M180.3,156.7l-5.7,1.9l-3.7-1.1l3.4,2.8C177.8,160.5,179.1,159.8,180.3,156.7z"/>
	<path class="st0" d="M150.3,142.7l8.1-3.6c-0.2-1.2-0.3-2.1-0.5-3l-7.6,6.4L150.3,142.7z"/>
	<path class="st0" d="M163.5,101.4c-1.7-3.7-4.2-6.9-6.7-10.3C157.1,93.2,160.4,98.3,163.5,101.4z"/>
	<path class="st0" d="M141.4,117.4c1-0.1,1.8-0.2,2.5-0.1s1.8,0.2,2.6,0.3s1.5,0.4,2.3-0.3C144.8,115.9,143.5,115.9,141.4,117.4z"/>
	<path class="st0" d="M130,154.6c-0.9-1.2-1.8-2.4-2.7-3.6c-0.3,2.1,1.2,2.9,2.1,4.1L130,154.6z"/>
	<path class="st0" d="M156.9,107.8c1,1.3,2.7,2,4.3,1.9l-4-2.3L156.9,107.8z"/>
	<path class="st0" d="M136.9,101.6l4.3-0.5c-1.8-0.8-3.1-1-4.4-0.1L136.9,101.6z"/>
	<path class="st0" d="M142.7,131.6l-3-1.6C140.6,132,140.6,132,142.7,131.6z"/>
	<path class="st0" d="M125.4,170l2.4,2.3C127.6,170.8,127.6,170.8,125.4,170z"/>
	<path class="st0" d="M135.1,161.1l-2-2.7l-0.5,0.3c0.2,1.2,1.5,1.8,2,2.8c0.1,0,0.1,0,0.2,0C134.9,161.4,134.9,161.3,135.1,161.1z"
		/>
	<path class="st0" d="M160.7,91c0.4,0.9,0.9,1.8,1.3,2.7l0.5-0.2c-0.1-1.1-0.6-2.1-1.4-2.8L160.7,91z"/>
	<path class="st0" d="M153.3,135.8c-0.7-0.9-1.9-1.2-2.9-0.8v0.6L153.3,135.8z"/>
	<path class="st0" d="M159.8,86.9l1,2.9l0.5-0.2l-1-3L159.8,86.9z"/>
	<path class="st0" d="M146.2,133.3l-0.8,0.2c0,0.1-0.1,0.3-0.1,0.5l1.8,0.7l0.3-0.4L146.2,133.3L146.2,133.3z"/>
	<path class="st0" d="M162.2,111.1l1.8,0.1v-0.6l-1.8-0.3L162.2,111.1z"/>
	<path class="st0" d="M174.3,136.1l-0.9-1.6c-0.2,0.2-0.4,0.2-0.4,0.3C172.9,135.6,173.2,136,174.3,136.1z"/>
	<path class="st0" d="M128.9,172.9l1.1,1.2l0.3-0.3c-0.3-0.4-0.7-0.9-1-1.3L128.9,172.9z"/>
	<path class="st0" d="M157.1,201.6l-2.3,2.5C156.5,203.9,156.9,202.9,157.1,201.6z"/>
	<path class="st0" d="M150.9,204.4l1.2-1.9C151.1,203.1,151.1,203.1,150.9,204.4z"/>
	<path class="st0" d="M153.9,203.4l1-0.9l-0.4-0.4l-1,1L153.9,203.4z"/>
	<path class="st0" d="M45.4,89.6c0.4,0.1,0.9,0.2,1.3,0.2c0.7,0,1.4-0.1,2.1-0.2c1.1-0.5,2.3-0.9,3.4-1.4s2.2-1,3.3-1.6l0,0
		c-0.2,0-0.3-0.1-0.5-0.1L45.4,89.6z"/>
	<path class="st0" d="M68.4,83.7l-1.6,0.8h7.2v-0.5C72.1,83.6,70.2,83.9,68.4,83.7L68.4,83.7z"/>
	<path class="st0" d="M65.5,84.3L59,85.5l0.1,0.5C61.3,85.6,63.6,85.8,65.5,84.3z"/>
	<path class="st0" d="M55.6,86.7l2-0.2L57.4,86L55.6,86.7L55.6,86.7z"/>
	<path class="st0" d="M163.7,185.1l-1.5,2.5c0,0.2,0,0.5,0,0.7C163.6,187.2,163.6,187.2,163.7,185.1z"/>
</g>
<g>
	<path class="st0" d="M330.1,128.4c0,26.8-16.6,40.2-49.9,40.2h-37.6v-2.9l10.3-1.2V92.7l-10.3-1.4v-3.1c3.7,0.2,8,0.4,12.8,0.4H267
		l14.9-0.5c7.3,0,13.7,0.6,19.1,1.8c5.5,1.2,10.5,3.2,15.1,6.1C325.4,101.8,330.1,112.7,330.1,128.4z M312,128.6
		c0-13.8-2.6-23.4-7.8-28.8c-1.7-1.8-3.2-3.2-4.7-4.1c-1.4-0.9-3.2-1.6-5.4-2.1c-3-0.7-6.4-1.2-10.4-1.3h-1.8
		c-5.8,0-10.1,0.2-12.8,0.6v71.6l11.2,0.4c7.6-0.3,13.2-1.4,16.9-3.1C307,157,312,145.9,312,128.6z"/>
	<path class="st0" d="M354.8,128.8c-1.8,1.2-3.6,1.8-5.5,1.8s-3.6-0.6-4.9-1.9c-1.4-1.3-2-3.2-2-5.7s0.8-4.8,2.3-6.8
		c1.5-2,3.5-3.5,5.9-4.4c4.7-2,9.2-3,13.4-3c9.4,0,15.9,1.7,19.3,5c3.4,3.3,5.2,8.4,5.2,15.3v36.1l10.1,0.7v2.6l-22.9,1.4l-1.1-10.1
		c-3.8,6.8-10.2,10.2-19.4,10.2c-4.2,0-7.7-1.3-10.7-3.8c-3-2.5-4.5-6.1-4.5-10.6c0.1-6.1,3.1-10.7,9.1-13.7
		c6-3.1,14.4-4.6,25.1-4.6V127c0-4.9-0.7-8.6-2-11.3c-1.4-2.6-3.9-4-7.6-4c-3.7,0-6.4,1.5-8.3,4.6c-1.2,2-1.8,4.1-1.8,6.4
		C354.4,124.9,354.5,127,354.8,128.8z M374,140.6c-9.3,0-15.1,2.4-17.5,7.3c-1,2.1-1.6,4.7-1.6,7.8c0,5.4,1.8,8.5,5.5,9.4
		c0.6,0.2,1.2,0.2,1.8,0.2c2.6,0,5.1-1.3,7.7-4c2.6-2.7,3.9-6.1,4.1-10.4V140.6z"/>
	<path class="st0" d="M431.7,113.2c3.6-3,7-4.6,10-4.6s5,0.7,6.1,2.2c1,1.5,1.6,2.7,1.6,3.7c0,3.3-1.2,5.6-3.6,7.1
		c-1.6-1.3-4-1.9-7.1-1.9c-3.2,0-6.3,1-9.4,2.9c-3.1,2-4.7,4.1-4.7,6.4v36.1l10.8,0.7v2.8h-33.5v-2.8l7.9-0.6V114l-9.7-0.5v-2.8
		l24.5-1.3l-0.7,14.8h0.5C425.6,119.9,428.1,116.2,431.7,113.2z"/>
	<path class="st0" d="M493.1,110.1h23.5v3.1l-8.9,2.3L485.6,134l26.6,31.1l8,0.8v2.8h-30.6v-2.8l6.7-0.7l-21.1-24.2V165l6.6,0.8v2.8
		h-29.8v-2.8l7.8-0.7V82.2l-10.3-0.7v-3l25.7-2v61.1l25.6-22.1l-7.8-2.3V110.1z"/>
	<path class="st0" d="M587.9,88.5c19.1,0,28.7,6.3,28.7,18.8c0,5.1-1.6,9.4-4.9,12.8c-3.3,3.4-8,5.5-14.3,6.2
		c8.1,1.5,14,3.9,17.6,7.1c3.7,3.2,5.5,7.7,5.5,13.6c0,7.4-3.1,12.8-9.4,16.4c-6.2,3.6-14.4,5.3-24.4,5.3h-32.5v-2.9l8.8-1.2V92.4
		l-10.2-1.2v-2.8H587.9z M579.2,91.7v33.6h2.9c5.6,0,10-1.5,13.1-4.6c3.1-3,4.7-7.5,4.7-13.3c0-5.8-1.2-9.9-3.6-12.2
		c-2.4-2.4-6.2-3.5-11.5-3.5H579.2z M582.4,128.7l-3.1,0.1v36.5c1.5,0.4,3.3,0.6,5.3,0.6c5.5,0,10.2-1.5,13.9-4.6
		c3.8-3.1,5.6-8.2,5.6-15.3c0-9-3.9-14.4-11.8-16.2C589.1,129,585.8,128.7,582.4,128.7z"/>
	<path class="st0" d="M658.9,170c-8.6,0-15.5-2.8-20.8-8.4c-5.3-5.6-8-13-8-22.2c0-9.2,2.8-16.6,8.3-22.2c5.6-5.6,12.6-8.4,21.2-8.4
		c8.6,0,15,1.8,19.2,5.5c4.2,3.6,6.4,8.7,6.4,15.2c0,1.8-0.2,3.8-0.5,5.8h-38v4.2c0,9,1.1,15.7,3.4,20.3c2.2,4.6,5.6,6.9,10.1,6.9
		c4.5,0,8.6-0.9,12.4-2.8c3.7-1.9,6.6-4.5,8.7-8c1.8,0.6,2.6,1.4,2.6,2.5c0,2-1.9,4.3-5.6,7c-1.8,1.3-4.5,2.4-7.9,3.3
		C667,169.5,663.2,170,658.9,170z M670.2,126.8c0-9.8-3.4-14.6-10.2-14.6c-7.1,0-11.4,6.2-13,18.7H670
		C670.1,129.2,670.2,127.9,670.2,126.8z"/>
	<path class="st0" d="M709,128.8c-1.8,1.2-3.6,1.8-5.5,1.8s-3.6-0.6-4.9-1.9c-1.4-1.3-2-3.2-2-5.7s0.8-4.8,2.3-6.8
		c1.5-2,3.5-3.5,5.9-4.4c4.7-2,9.2-3,13.4-3c9.4,0,15.9,1.7,19.3,5c3.4,3.3,5.2,8.4,5.2,15.3v36.1l10.1,0.7v2.6l-22.9,1.4l-1.1-10.1
		c-3.8,6.8-10.2,10.2-19.4,10.2c-4.2,0-7.7-1.3-10.7-3.8c-3-2.5-4.5-6.1-4.5-10.6c0.1-6.1,3.1-10.7,9.1-13.7
		c6-3.1,14.4-4.6,25.1-4.6V127c0-4.9-0.7-8.6-2-11.3c-1.4-2.6-3.9-4-7.6-4c-3.7,0-6.4,1.5-8.3,4.6c-1.2,2-1.8,4.1-1.8,6.4
		C708.5,124.9,708.6,127,709,128.8z M728.2,140.6c-9.3,0-15.1,2.4-17.5,7.3c-1,2.1-1.6,4.7-1.6,7.8c0,5.4,1.8,8.5,5.5,9.4
		c0.6,0.2,1.2,0.2,1.8,0.2c2.6,0,5.1-1.3,7.7-4c2.6-2.7,3.9-6.1,4.1-10.4V140.6z"/>
	<path class="st0" d="M785.8,113.2c3.6-3,7-4.6,10-4.6s5,0.7,6.1,2.2c1,1.5,1.6,2.7,1.6,3.7c0,3.3-1.2,5.6-3.6,7.1
		c-1.6-1.3-4-1.9-7.1-1.9c-3.2,0-6.3,1-9.4,2.9c-3.1,2-4.7,4.1-4.7,6.4v36.1l10.8,0.7v2.8h-33.5v-2.8l7.9-0.6V114l-9.7-0.5v-2.8
		l24.5-1.3l-0.7,14.8h0.5C779.7,119.9,782.2,116.2,785.8,113.2z"/>
	<path class="st0" d="M833.2,170.4c-7.3,0-13.3-2.4-18.1-7.3c-4.8-4.9-7.2-12.2-7.2-22.1c0-9.8,2.9-17.6,8.6-23.3
		c5.7-5.7,13.3-8.5,22.9-8.5c5,0,9.6,1.2,14,3.5V82.2L843,81.5v-3l25.7-2v89.4l10.2,0.5l0.1,2.8l-25.1,1.4l0.2-10.8h-0.7
		c-2,3.4-4.8,6-8.5,7.9C841.2,169.5,837.3,170.4,833.2,170.4z M853.2,150.2v-33c-3.2-3-7.3-4.4-12.2-4.4c-6.3,0-10.6,2.9-13,8.8
		c-1.9,5.1-2.9,11.6-2.9,19.6c0,17,3.8,25.6,11.4,25.6c4.5,0,8.4-1.9,11.7-5.8C851.5,157,853.2,153.4,853.2,150.2z"/>
</g>
</svg>
